<?xml version="1.0" encoding="utf-8" ?>
<svg baseProfile="full" height="1000" version="1.1" viewBox="0 0 1800 1000" width="1800" xmlns="http://www.w3.org/2000/svg" xmlns:ev="http://www.w3.org/2001/xml-events" xmlns:xlink="http://www.w3.org/1999/xlink"><defs /><rect fill="#F4DED9" height="640" width="1800" x="0" y="0" /><g id="brain-background" opacity="0.82"><path d="M 22,52 C 80,92 104,42 177,105 C 252,168 321,120 390,154 C 466,190 505,266 460,347 C 399,455 282,463 210,405 C 142,351 92,344 24,362" fill="none" stroke="#9C7478" stroke-linecap="round" stroke-width="3" /><path d="M 432,225 C 540,72 718,82 800,224 C 835,284 794,357 720,358 C 644,360 602,310 570,252 C 548,210 502,189 432,225" fill="none" stroke="#9C7478" stroke-linecap="round" stroke-width="3" /><path d="M 589,236 C 646,152 746,165 791,244 C 816,290 783,330 728,333 C 660,338 625,293 589,236" fill="none" stroke="#9C7478" stroke-linecap="round" stroke-width="3" /><path d="M 762,254 C 880,165 1085,154 1267,221 C 1398,269 1532,213 1625,121 C 1710,37 1807,64 1840,149" fill="none" stroke="#9C7478" stroke-linecap="round" stroke-width="3" /><path d="M 1400,501 C 1494,468 1550,500 1610,493 C 1675,486 1713,536 1757,556" fill="none" stroke="#9C7478" stroke-linecap="round" stroke-width="3" /><path d="M 1320,484 C 1412,470 1455,446 1520,431" fill="none" stroke="#9C7478" stroke-linecap="round" stroke-width="3" /><path d="M 692,516 C 748,470 782,470 802,526 C 824,588 768,657 688,631 C 620,609 630,558 692,516" fill="#D7B9B4" opacity="0.55" stroke="#9C7478" stroke-width="2" /><path d="M 540,518 C 612,551 681,587 730,643 C 779,699 861,749 1000,742" fill="none" opacity="0.7" stroke="#9C7478" stroke-linecap="round" stroke-width="3" /></g><g id="ventricular-landmarks"><path d="M 402,144 C 481,194 556,265 575,354 C 595,446 548,513 458,529" fill="none" opacity="0.95" stroke="white" stroke-linecap="round" stroke-width="7" /><path d="M 457,529 C 520,526 576,516 642,496" fill="none" opacity="0.95" stroke="white" stroke-linecap="round" stroke-width="7" /></g><g id="floor-landmarks"><path d="M 480,519 C 600,536 730,545 870,538 C 982,532 1087,536 1143,563" fill="none" stroke="#161616" stroke-linecap="round" stroke-width="2.4" /><ellipse cx="748" cy="548" fill="#D8B8B2" opacity="0.9" rx="58" ry="18" stroke="#161616" stroke-width="1.6" /><text fill="#1A1A1A" font-family="Arial Narrow, Arial, Helvetica, sans-serif" font-size="22" text-anchor="middle" x="748" y="556">ME</text></g><g id="zona-incerta"><path d="M 806,253 C 926,216 1082,206 1229,242 C 1310,262 1362,305 1356,350 C 1347,387 1302,389 1251,361 C 1116,294 963,288 823,321 C 781,331 758,310 767,282 C 772,267 786,259 806,253 Z" fill="#BBB6AD" stroke="#161616" stroke-width="2.2" /><text fill="#1A1A1A" font-family="Arial Narrow, Arial, Helvetica, sans-serif" font-size="32" text-anchor="middle" x="1025" y="285">ZI</text></g><g id="hypothalamic-areas"><path d="M 715,311 C 800,286 888,292 958,325 C 1026,357 1058,412 1031,469 C 1002,533 889,534 768,514 C 710,505 677,470 681,420 C 685,371 690,328 715,311 Z" fill="#EA8C43" stroke="#161616" stroke-width="2.2" /><path d="M 990,323 C 1069,281 1186,276 1265,317 C 1317,344 1326,394 1286,433 C 1227,491 1097,482 1014,440 C 966,416 952,346 990,323 Z" fill="#B89551" stroke="#161616" stroke-width="2.2" /><path d="M 950,430 C 1021,404 1118,414 1160,464 C 1201,513 1165,560 1096,565 C 1015,572 936,536 924,487 C 918,461 927,440 950,430 Z" fill="#C8A454" stroke="#161616" stroke-width="2.2" /></g><g id="hypothalamic-nuclei"><path d="M 472,226 C 502,173 537,150 562,180 C 590,213 580,279 544,305 C 510,328 463,304 464,265 C 464,251 467,238 472,226 Z" fill="#5FA8A3" stroke="#161616" stroke-width="2.2" /><path d="M 416,300 C 454,278 487,287 495,318 C 503,351 471,374 433,365 C 401,358 389,323 416,300 Z" fill="#87CAC3" stroke="#161616" stroke-width="2.2" /><ellipse cx="398" cy="384" fill="#87CAC3" rx="40" ry="30" stroke="#161616" stroke-width="2.2" /><path d="M 515,351 C 531,319 571,298 605,314 C 640,330 652,385 628,423 C 604,462 549,452 526,419 C 510,396 504,374 515,351 Z" fill="#6CB8B1" stroke="#161616" stroke-width="2.2" /><path d="M 518,458 C 548,420 608,426 636,464 C 662,498 637,543 591,551 C 540,559 498,521 505,483 C 507,474 512,465 518,458 Z" fill="#F0775F" stroke="#161616" stroke-width="2.2" /><path d="M 635,356 C 680,329 734,337 762,374 C 790,411 774,461 729,481 C 676,506 619,470 617,416 C 616,391 623,371 635,356 Z" fill="#5FA8A3" stroke="#161616" stroke-width="2.2" /><ellipse cx="492" cy="418" fill="#87CAC3" rx="42" ry="30" stroke="#161616" stroke-width="2.2" /><path d="M 566,319 C 576,356 577,416 566,467 C 560,459 557,337 566,319 Z" fill="#9BD6D0" stroke="#161616" stroke-width="1.4" /><path d="M 716,332 C 761,304 824,314 850,357 C 874,397 843,444 790,444 C 736,444 699,407 704,367 C 706,352 710,340 716,332 Z" fill="#E56E5F" stroke="#161616" stroke-width="2.2" /><path d="M 686,422 C 725,385 794,392 829,437 C 865,484 829,535 766,536 C 702,537 660,494 669,453 C 672,440 677,430 686,422 Z" fill="#F08B63" stroke="#161616" stroke-width="2.2" /><path d="M 657,520 C 728,499 829,500 917,516 C 893,544 752,561 653,541 C 636,538 637,526 657,520 Z" fill="#F0A25D" stroke="#161616" stroke-width="2.2" /><path d="M 1020,360 C 1069,326 1140,326 1190,360 C 1231,388 1232,430 1192,456 C 1135,492 1049,472 1016,422 C 1001,398 1002,374 1020,360 Z" fill="#B89551" stroke="#161616" stroke-width="2.2" /><ellipse cx="1114" cy="485" fill="#D7B464" rx="58" ry="35" stroke="#161616" stroke-width="2.2" /><ellipse cx="1068" cy="535" fill="#C69B42" rx="57" ry="36" stroke="#161616" stroke-width="2.2" /><ellipse cx="1186" cy="521" fill="#D1AA4E" rx="60" ry="34" stroke="#161616" stroke-width="2.2" /><ellipse cx="1260" cy="565" fill="#D5B04A" rx="40" ry="55" stroke="#161616" stroke-width="2.2" /><ellipse cx="1330" cy="562" fill="#C7A142" rx="40" ry="57" stroke="#161616" stroke-width="2.2" /><path d="M 1209,537 C 1234,513 1277,513 1300,538" fill="none" stroke="#161616" stroke-width="2.0" /></g><g fill="#1A1A1A" font-family="Arial Narrow, Arial, Helvetica, sans-serif" font-weight="normal" id="labels"><text fill="#1A1A1A" font-family="Arial Narrow, Arial, Helvetica, sans-serif" font-size="30" text-anchor="middle" x="515" y="248">MPOA</text><text fill="#1A1A1A" font-family="Arial Narrow, Arial, Helvetica, sans-serif" font-size="23" text-anchor="middle" x="452" y="333">MnPO</text><text fill="#1A1A1A" font-family="Arial Narrow, Arial, Helvetica, sans-serif" font-size="31" text-anchor="middle" x="576" y="381">PVN</text><text fill="#1A1A1A" font-family="Arial Narrow, Arial, Helvetica, sans-serif" font-size="18" text-anchor="start" x="590" y="333">PeVN</text><text fill="#1A1A1A" font-family="Arial Narrow, Arial, Helvetica, sans-serif" font-size="31" text-anchor="middle" x="578" y="500">SON</text><text fill="#1A1A1A" font-family="Arial Narrow, Arial, Helvetica, sans-serif" font-size="27" text-anchor="middle" x="491" y="427">SCN</text><text fill="#1A1A1A" font-family="Arial Narrow, Arial, Helvetica, sans-serif" font-size="30" text-anchor="middle" x="695" y="424">AHN</text><text fill="#1A1A1A" font-family="Arial Narrow, Arial, Helvetica, sans-serif" font-size="30" text-anchor="middle" x="779" y="372">DMH</text><text fill="#1A1A1A" font-family="Arial Narrow, Arial, Helvetica, sans-serif" font-size="30" text-anchor="middle" x="752" y="477">VMH</text><text fill="#1A1A1A" font-family="Arial Narrow, Arial, Helvetica, sans-serif" font-size="28" text-anchor="middle" x="776" y="536">ARC</text><text fill="#1A1A1A" font-family="Arial Narrow, Arial, Helvetica, sans-serif" font-size="35" text-anchor="middle" x="879" y="409">LHA</text><text fill="#1A1A1A" font-family="Arial Narrow, Arial, Helvetica, sans-serif" font-size="31" text-anchor="middle" x="1115" y="405">PHN</text><text fill="#1A1A1A" font-family="Arial Narrow, Arial, Helvetica, sans-serif" font-size="24" text-anchor="middle" x="1114" y="494">PMd</text><text fill="#1A1A1A" font-family="Arial Narrow, Arial, Helvetica, sans-serif" font-size="24" text-anchor="middle" x="1068" y="544">PMv</text><text fill="#1A1A1A" font-family="Arial Narrow, Arial, Helvetica, sans-serif" font-size="25" text-anchor="middle" x="1186" y="530">TMN</text><text fill="#1A1A1A" font-family="Arial Narrow, Arial, Helvetica, sans-serif" font-size="20" text-anchor="middle" x="1260" y="573">MMN</text><text fill="#1A1A1A" font-family="Arial Narrow, Arial, Helvetica, sans-serif" font-size="20" text-anchor="middle" x="1330" y="570">LMN</text><text fill="#1A1A1A" font-family="Arial Narrow, Arial, Helvetica, sans-serif" font-size="22" text-anchor="middle" x="343" y="384">OVLT</text><line stroke="#1A1A1A" stroke-width="1.8" x1="368" x2="392" y1="378" y2="382" /><text fill="#9C7478" font-family="Arial Narrow, Arial, Helvetica, sans-serif" font-size="22" x="74" y="63">Anterior</text><text fill="#9C7478" font-family="Arial Narrow, Arial, Helvetica, sans-serif" font-size="22" x="1595" y="63">Posterior</text><line stroke="#9C7478" stroke-width="2" x1="1535" x2="1580" y1="57" y2="57" /><path d="M1580,57 L1568,50 L1568,64 Z" fill="#9C7478" /><text fill="#6F5658" font-family="Arial, Helvetica, sans-serif" font-size="20" text-anchor="middle" x="902" y="35">Sagittal schematic projection: medial, lateral, and dorsal landmarks are collapsed onto one teaching plane.</text></g><rect fill="#FFFFFF" height="360" width="1800" x="0" y="640" /><line stroke="#161616" stroke-width="3" x1="0" x2="1800" y1="640" y2="640" /><g fill="#1A1A1A" font-family="Arial Narrow, Arial, Helvetica, sans-serif" id="key"><text fill="#1A1A1A" font-family="Arial Narrow, Arial, Helvetica, sans-serif" font-size="33" font-weight="bold" x="35" y="685">Hypothalamic Nuclei / Area Key</text><text fill="#555" font-family="Arial, Helvetica, sans-serif" font-size="20" x="35" y="715">Color regions are anatomical zones; some entries are areas or landmarks rather than single compact nuclei.</text><rect fill="#6CB8B1" height="30" stroke="#161616" stroke-width="1.2" width="30" x="35" y="730" /><text fill="#1A1A1A" font-family="Arial Narrow, Arial, Helvetica, sans-serif" font-size="28" x="78" y="753">Anterior / preoptic</text><circle cx="35" cy="778" fill="#1A1A1A" r="5.2" /><text fill="#1A1A1A" font-family="Arial Narrow, Arial, Helvetica, sans-serif" font-size="21" x="53" y="785">OVLT — organum vasculosum</text><circle cx="35" cy="802" fill="#1A1A1A" r="5.2" /><text fill="#1A1A1A" font-family="Arial Narrow, Arial, Helvetica, sans-serif" font-size="21" x="53" y="809">MnPO — median preoptic nucleus</text><circle cx="35" cy="826" fill="#1A1A1A" r="5.2" /><text fill="#1A1A1A" font-family="Arial Narrow, Arial, Helvetica, sans-serif" font-size="21" x="53" y="833">MPOA — medial preoptic area</text><circle cx="35" cy="850" fill="#1A1A1A" r="5.2" /><text fill="#1A1A1A" font-family="Arial Narrow, Arial, Helvetica, sans-serif" font-size="21" x="53" y="857">SCN — suprachiasmatic nucleus</text><circle cx="35" cy="874" fill="#1A1A1A" r="5.2" /><text fill="#1A1A1A" font-family="Arial Narrow, Arial, Helvetica, sans-serif" font-size="21" x="53" y="881">PVN — paraventricular nucleus</text><circle cx="35" cy="898" fill="#1A1A1A" r="5.2" /><text fill="#1A1A1A" font-family="Arial Narrow, Arial, Helvetica, sans-serif" font-size="21" x="53" y="905">SON — supraoptic nucleus</text><circle cx="35" cy="922" fill="#1A1A1A" r="5.2" /><text fill="#1A1A1A" font-family="Arial Narrow, Arial, Helvetica, sans-serif" font-size="21" x="53" y="929">AHN — anterior hypothalamic nucleus</text><circle cx="35" cy="946" fill="#1A1A1A" r="5.2" /><text fill="#1A1A1A" font-family="Arial Narrow, Arial, Helvetica, sans-serif" font-size="21" x="53" y="953">PeVN — periventricular nucleus</text><rect fill="#E56E5F" height="30" stroke="#161616" stroke-width="1.2" width="30" x="455" y="730" /><text fill="#1A1A1A" font-family="Arial Narrow, Arial, Helvetica, sans-serif" font-size="28" x="498" y="753">Tuberal / middle</text><circle cx="455" cy="778" fill="#1A1A1A" r="5.2" /><text fill="#1A1A1A" font-family="Arial Narrow, Arial, Helvetica, sans-serif" font-size="22" x="473" y="785">DMH — dorsomedial hypothalamic nucleus</text><circle cx="455" cy="805" fill="#1A1A1A" r="5.2" /><text fill="#1A1A1A" font-family="Arial Narrow, Arial, Helvetica, sans-serif" font-size="22" x="473" y="812">VMH — ventromedial hypothalamic nucleus</text><circle cx="455" cy="832" fill="#1A1A1A" r="5.2" /><text fill="#1A1A1A" font-family="Arial Narrow, Arial, Helvetica, sans-serif" font-size="22" x="473" y="839">ARC — arcuate nucleus</text><circle cx="455" cy="859" fill="#1A1A1A" r="5.2" /><text fill="#1A1A1A" font-family="Arial Narrow, Arial, Helvetica, sans-serif" font-size="22" x="473" y="866">LHA — lateral hypothalamic area</text><circle cx="455" cy="886" fill="#1A1A1A" r="5.2" /><text fill="#1A1A1A" font-family="Arial Narrow, Arial, Helvetica, sans-serif" font-size="22" x="473" y="893">ME — median eminence (landmark)</text><rect fill="#B89551" height="30" stroke="#161616" stroke-width="1.2" width="30" x="910" y="730" /><text fill="#1A1A1A" font-family="Arial Narrow, Arial, Helvetica, sans-serif" font-size="28" x="953" y="753">Posterior / mammillary</text><circle cx="910" cy="778" fill="#1A1A1A" r="5.2" /><text fill="#1A1A1A" font-family="Arial Narrow, Arial, Helvetica, sans-serif" font-size="22" x="928" y="785">PHN — posterior hypothalamic nucleus/area</text><circle cx="910" cy="805" fill="#1A1A1A" r="5.2" /><text fill="#1A1A1A" font-family="Arial Narrow, Arial, Helvetica, sans-serif" font-size="22" x="928" y="812">TMN — tuberomammillary nucleus</text><circle cx="910" cy="832" fill="#1A1A1A" r="5.2" /><text fill="#1A1A1A" font-family="Arial Narrow, Arial, Helvetica, sans-serif" font-size="22" x="928" y="839">PMd — dorsal premammillary nucleus</text><circle cx="910" cy="859" fill="#1A1A1A" r="5.2" /><text fill="#1A1A1A" font-family="Arial Narrow, Arial, Helvetica, sans-serif" font-size="22" x="928" y="866">PMv — ventral premammillary nucleus</text><circle cx="910" cy="886" fill="#1A1A1A" r="5.2" /><text fill="#1A1A1A" font-family="Arial Narrow, Arial, Helvetica, sans-serif" font-size="22" x="928" y="893">MMN / LMN — mammillary nuclei</text><rect fill="#BBB6AD" height="30" stroke="#161616" stroke-width="1.2" width="30" x="1370" y="730" /><text fill="#1A1A1A" font-family="Arial Narrow, Arial, Helvetica, sans-serif" font-size="28" x="1413" y="753">Adjacent dorsal landmark</text><circle cx="1370" cy="778" fill="#1A1A1A" r="5.2" /><text fill="#1A1A1A" font-family="Arial Narrow, Arial, Helvetica, sans-serif" font-size="22" x="1388" y="785">ZI — zona incerta</text><circle cx="1370" cy="805" fill="#1A1A1A" r="5.2" /><text fill="#1A1A1A" font-family="Arial Narrow, Arial, Helvetica, sans-serif" font-size="22" x="1388" y="812">Dorsal to hypothalamus; not counted</text><circle cx="1370" cy="832" fill="#1A1A1A" r="5.2" /><text fill="#1A1A1A" font-family="Arial Narrow, Arial, Helvetica, sans-serif" font-size="22" x="1388" y="839">as a hypothalamic nucleus</text></g><rect fill="none" height="998" stroke="#161616" stroke-width="3" width="1798" x="1" y="1" /></svg>