<svg xmlns="http://www.w3.org/2000/svg" width="1480" height="900" viewBox="0 0 1480 900" role="img" aria-labelledby="title desc">
<title id="title">MPN social homeostasis and MPOA parenting circuit</title>
<desc id="desc">Detailed circuit showing MPN isolation and reunion opponent populations and MPOA parental-care outputs.</desc>
<defs>
  <marker id="arrow" markerWidth="10" markerHeight="10" refX="9" refY="3" orient="auto" markerUnits="strokeWidth"><path d="M0,0 L0,6 L9,3 z" fill="#607d8b"/></marker>
  <marker id="arrowRed" markerWidth="10" markerHeight="10" refX="9" refY="3" orient="auto" markerUnits="strokeWidth"><path d="M0,0 L0,6 L9,3 z" fill="#c62828"/></marker>
</defs>
<rect x="0" y="0" width="1480" height="900" fill="#fbfcfd"/>
<text x="740" y="42" font-family="Aptos, Arial, Helvetica, sans-serif" font-size="28" font-weight="700" text-anchor="middle" fill="#263238">Preoptic State Switching: Social Need, Social Satiation, and Parenting</text>
<rect x="40" y="75" width="680" height="770" rx="18" fill="#eef7f0" stroke="#a5d6a7" stroke-width="1.5"/>
<rect x="760" y="75" width="680" height="770" rx="18" fill="#fff4e5" stroke="#ffcc80" stroke-width="1.5"/>
<text x="380" y="115" font-family="Aptos, Arial, Helvetica, sans-serif" font-size="22" font-weight="700" text-anchor="middle" fill="#2e7d32">Social homeostasis circuit</text>
<text x="1100" y="115" font-family="Aptos, Arial, Helvetica, sans-serif" font-size="22" font-weight="700" text-anchor="middle" fill="#ef6c00">Parenting state circuit</text>
<rect x="87" y="153" width="210" height="82" rx="12" fill="#000000" opacity="0.08"/>
<rect x="85" y="150" width="210" height="82" rx="12" fill="#ffffff" stroke="#81c784" stroke-width="1.4"/>
<text x="190.0" y="170.0" font-family="Aptos, Arial, Helvetica, sans-serif" font-size="15" font-weight="700" text-anchor="middle" fill="#2e7d32">Loss of social touch</text>
<text x="190.0" y="197.2" font-family="Aptos, Arial, Helvetica, sans-serif" font-size="12" font-weight="400" text-anchor="middle" fill="#263238">isolation; absence of</text>
<text x="190.0" y="211.4" font-family="Aptos, Arial, Helvetica, sans-serif" font-size="12" font-weight="400" text-anchor="middle" fill="#263238">huddling / grooming</text>
<rect x="87" y="303" width="210" height="82" rx="12" fill="#000000" opacity="0.08"/>
<rect x="85" y="300" width="210" height="82" rx="12" fill="#ffffff" stroke="#81c784" stroke-width="1.4"/>
<text x="190.0" y="320.0" font-family="Aptos, Arial, Helvetica, sans-serif" font-size="15" font-weight="700" text-anchor="middle" fill="#2e7d32">Gentle touch / reunion</text>
<text x="190.0" y="347.2" font-family="Aptos, Arial, Helvetica, sans-serif" font-size="12" font-weight="400" text-anchor="middle" fill="#263238">contact, warmth, tactile</text>
<text x="190.0" y="361.4" font-family="Aptos, Arial, Helvetica, sans-serif" font-size="12" font-weight="400" text-anchor="middle" fill="#263238">feedback</text>
<rect x="362" y="148" width="245" height="95" rx="12" fill="#000000" opacity="0.08"/>
<rect x="360" y="145" width="245" height="95" rx="12" fill="#ffffff" stroke="#66bb6a" stroke-width="1.4"/>
<text x="482.5" y="165.0" font-family="Aptos, Arial, Helvetica, sans-serif" font-size="15" font-weight="700" text-anchor="middle" fill="#1b5e20">MPN Isolation neurons</text>
<text x="482.5" y="192.2" font-family="Aptos, Arial, Helvetica, sans-serif" font-size="12" font-weight="400" text-anchor="middle" fill="#263238">Vglut2+, Mc4r+, Cartpt+;</text>
<text x="482.5" y="206.4" font-family="Aptos, Arial, Helvetica, sans-serif" font-size="12" font-weight="400" text-anchor="middle" fill="#263238">negative valence; social</text>
<text x="482.5" y="220.6" font-family="Aptos, Arial, Helvetica, sans-serif" font-size="12" font-weight="400" text-anchor="middle" fill="#263238">seeking</text>
<rect x="362" y="308" width="245" height="95" rx="12" fill="#000000" opacity="0.08"/>
<rect x="360" y="305" width="245" height="95" rx="12" fill="#ffffff" stroke="#ab47bc" stroke-width="1.4"/>
<text x="482.5" y="325.0" font-family="Aptos, Arial, Helvetica, sans-serif" font-size="15" font-weight="700" text-anchor="middle" fill="#6a1b9a">MPN Reunion neurons</text>
<text x="482.5" y="352.2" font-family="Aptos, Arial, Helvetica, sans-serif" font-size="12" font-weight="400" text-anchor="middle" fill="#263238">mostly GABAergic; Trhr+;</text>
<text x="482.5" y="366.4" font-family="Aptos, Arial, Helvetica, sans-serif" font-size="12" font-weight="400" text-anchor="middle" fill="#263238">social satiation after</text>
<text x="482.5" y="380.6" font-family="Aptos, Arial, Helvetica, sans-serif" font-size="12" font-weight="400" text-anchor="middle" fill="#263238">deficit</text>
<rect x="102" y="528" width="210" height="80" rx="12" fill="#000000" opacity="0.08"/>
<rect x="100" y="525" width="210" height="80" rx="12" fill="#ffffff" stroke="#64b5f6" stroke-width="1.4"/>
<text x="205.0" y="545.0" font-family="Aptos, Arial, Helvetica, sans-serif" font-size="15" font-weight="700" text-anchor="middle" fill="#1565c0">Touch relays</text>
<text x="205.0" y="572.2" font-family="Aptos, Arial, Helvetica, sans-serif" font-size="12" font-weight="400" text-anchor="middle" fill="#263238">skin to spinal cord to</text>
<text x="205.0" y="586.4" font-family="Aptos, Arial, Helvetica, sans-serif" font-size="12" font-weight="400" text-anchor="middle" fill="#263238">PBNEL and forebrain</text>
<text x="205.0" y="600.6" font-family="Aptos, Arial, Helvetica, sans-serif" font-size="12" font-weight="400" text-anchor="middle" fill="#263238">routes</text>
<rect x="392" y="528" width="250" height="80" rx="12" fill="#000000" opacity="0.08"/>
<rect x="390" y="525" width="250" height="80" rx="12" fill="#ffffff" stroke="#ffb74d" stroke-width="1.4"/>
<text x="515.0" y="545.0" font-family="Aptos, Arial, Helvetica, sans-serif" font-size="15" font-weight="700" text-anchor="middle" fill="#ef6c00">PVN oxytocin / vasopressin</text>
<text x="515.0" y="572.2" font-family="Aptos, Arial, Helvetica, sans-serif" font-size="12" font-weight="400" text-anchor="middle" fill="#263238">modulates social rebound</text>
<text x="515.0" y="586.4" font-family="Aptos, Arial, Helvetica, sans-serif" font-size="12" font-weight="400" text-anchor="middle" fill="#263238">and affiliative drive</text>
<rect x="97" y="673" width="175" height="80" rx="12" fill="#000000" opacity="0.08"/>
<rect x="95" y="670" width="175" height="80" rx="12" fill="#ffffff" stroke="#b0bec5" stroke-width="1.4"/>
<text x="182.5" y="690.0" font-family="Aptos, Arial, Helvetica, sans-serif" font-size="15" font-weight="700" text-anchor="middle" fill="#37474f">LHb / LS / BNST</text>
<text x="182.5" y="717.2" font-family="Aptos, Arial, Helvetica, sans-serif" font-size="12" font-weight="400" text-anchor="middle" fill="#263238">negative valence and</text>
<text x="182.5" y="731.4" font-family="Aptos, Arial, Helvetica, sans-serif" font-size="12" font-weight="400" text-anchor="middle" fill="#263238">aversive state</text>
<rect x="297" y="673" width="175" height="80" rx="12" fill="#000000" opacity="0.08"/>
<rect x="295" y="670" width="175" height="80" rx="12" fill="#ffffff" stroke="#b0bec5" stroke-width="1.4"/>
<text x="382.5" y="690.0" font-family="Aptos, Arial, Helvetica, sans-serif" font-size="15" font-weight="700" text-anchor="middle" fill="#37474f">ARC / physiology</text>
<text x="382.5" y="717.2" font-family="Aptos, Arial, Helvetica, sans-serif" font-size="12" font-weight="400" text-anchor="middle" fill="#263238">need competition;</text>
<text x="382.5" y="731.4" font-family="Aptos, Arial, Helvetica, sans-serif" font-size="12" font-weight="400" text-anchor="middle" fill="#263238">appetite and body</text>
<text x="382.5" y="745.6" font-family="Aptos, Arial, Helvetica, sans-serif" font-size="12" font-weight="400" text-anchor="middle" fill="#263238">state</text>
<rect x="497" y="673" width="175" height="80" rx="12" fill="#000000" opacity="0.08"/>
<rect x="495" y="670" width="175" height="80" rx="12" fill="#ffffff" stroke="#b0bec5" stroke-width="1.4"/>
<text x="582.5" y="690.0" font-family="Aptos, Arial, Helvetica, sans-serif" font-size="15" font-weight="700" text-anchor="middle" fill="#37474f">VTA / NAc</text>
<text x="582.5" y="717.2" font-family="Aptos, Arial, Helvetica, sans-serif" font-size="12" font-weight="400" text-anchor="middle" fill="#263238">reunion reward,</text>
<text x="582.5" y="731.4" font-family="Aptos, Arial, Helvetica, sans-serif" font-size="12" font-weight="400" text-anchor="middle" fill="#263238">dopamine, motivation</text>
<line x1="295" y1="191" x2="360" y2="191" stroke="#4caf50" stroke-width="2.5" fill="none" marker-end="url(#arrow)"/>
<path d="M295,340 C330,340 330,360 360,360" stroke="#7b1fa2" stroke-width="2.5" fill="none" marker-end="url(#arrow)"/>
<line x1="482" y1="305" x2="482" y2="245" stroke="#c62828" stroke-width="3" fill="none"/>
<line x1="462" y1="245" x2="502" y2="245" stroke="#c62828" stroke-width="3"/>
<text x="520" y="275" font-family="Aptos, Arial, Helvetica, sans-serif" font-size="13" fill="#c62828">GABAergic inhibition</text>
<path d="M205,525 C205,455 325,360 360,360" stroke="#1565c0" stroke-width="2.2" fill="none" marker-end="url(#arrow)"/>
<path d="M430,240 C380,520 195,650 180,670" stroke="#607d8b" stroke-width="2" fill="none" marker-end="url(#arrow)"/>
<path d="M500,240 C470,500 380,650 382,670" stroke="#607d8b" stroke-width="2" fill="none" marker-end="url(#arrow)"/>
<path d="M545,240 C575,400 560,490 515,525" stroke="#607d8b" stroke-width="2" fill="none" marker-end="url(#arrow)"/>
<path d="M535,400 C585,510 590,620 582,670" stroke="#607d8b" stroke-width="2" fill="none" marker-end="url(#arrow)"/>
<rect x="84" y="790" width="585" height="40" rx="12" fill="#fffde7" stroke="#fbc02d" stroke-width="1.4"/>
<text x="376.5" y="810.0" font-family="Aptos, Arial, Helvetica, sans-serif" font-size="14" font-weight="700" text-anchor="middle" fill="#795548">Key caution: MPN Reunion supports satiation after deprivation; it is not</text>
<text x="376.5" y="826.1" font-family="Aptos, Arial, Helvetica, sans-serif" font-size="14" font-weight="700" text-anchor="middle" fill="#795548">proven to be an active “seek isolation” drive.</text>
<rect x="802" y="153" width="220" height="82" rx="12" fill="#000000" opacity="0.08"/>
<rect x="800" y="150" width="220" height="82" rx="12" fill="#ffffff" stroke="#ffb74d" stroke-width="1.4"/>
<text x="910.0" y="170.0" font-family="Aptos, Arial, Helvetica, sans-serif" font-size="15" font-weight="700" text-anchor="middle" fill="#ef6c00">Hormonal priming</text>
<text x="910.0" y="197.2" font-family="Aptos, Arial, Helvetica, sans-serif" font-size="12" font-weight="400" text-anchor="middle" fill="#263238">estradiol, prolactin,</text>
<text x="910.0" y="211.4" font-family="Aptos, Arial, Helvetica, sans-serif" font-size="12" font-weight="400" text-anchor="middle" fill="#263238">placental lactogens,</text>
<text x="910.0" y="225.6" font-family="Aptos, Arial, Helvetica, sans-serif" font-size="12" font-weight="400" text-anchor="middle" fill="#263238">oxytocin</text>
<rect x="802" y="278" width="220" height="82" rx="12" fill="#000000" opacity="0.08"/>
<rect x="800" y="275" width="220" height="82" rx="12" fill="#ffffff" stroke="#ffb74d" stroke-width="1.4"/>
<text x="910.0" y="295.0" font-family="Aptos, Arial, Helvetica, sans-serif" font-size="15" font-weight="700" text-anchor="middle" fill="#ef6c00">Infant / pup cues</text>
<text x="910.0" y="322.2" font-family="Aptos, Arial, Helvetica, sans-serif" font-size="12" font-weight="400" text-anchor="middle" fill="#263238">odor, cry, warmth,</text>
<text x="910.0" y="336.4" font-family="Aptos, Arial, Helvetica, sans-serif" font-size="12" font-weight="400" text-anchor="middle" fill="#263238">movement, suckling</text>
<rect x="1087" y="193" width="250" height="105" rx="12" fill="#000000" opacity="0.08"/>
<rect x="1085" y="190" width="250" height="105" rx="12" fill="#ffffff" stroke="#fb8c00" stroke-width="1.4"/>
<text x="1210.0" y="210.0" font-family="Aptos, Arial, Helvetica, sans-serif" font-size="15" font-weight="700" text-anchor="middle" fill="#e65100">MPOA parental-care neurons</text>
<text x="1210.0" y="237.2" font-family="Aptos, Arial, Helvetica, sans-serif" font-size="12" font-weight="400" text-anchor="middle" fill="#263238">Gal+, hormone-sensitive</text>
<text x="1210.0" y="251.4" font-family="Aptos, Arial, Helvetica, sans-serif" font-size="12" font-weight="400" text-anchor="middle" fill="#263238">populations; state switch</text>
<text x="1210.0" y="265.6" font-family="Aptos, Arial, Helvetica, sans-serif" font-size="12" font-weight="400" text-anchor="middle" fill="#263238">for care</text>
<rect x="812" y="458" width="190" height="80" rx="12" fill="#000000" opacity="0.08"/>
<rect x="810" y="455" width="190" height="80" rx="12" fill="#ffffff" stroke="#90a4ae" stroke-width="1.4"/>
<text x="905.0" y="475.0" font-family="Aptos, Arial, Helvetica, sans-serif" font-size="15" font-weight="700" text-anchor="middle" fill="#37474f">MeA / BNST</text>
<text x="905.0" y="502.2" font-family="Aptos, Arial, Helvetica, sans-serif" font-size="12" font-weight="400" text-anchor="middle" fill="#263238">identity, sex, threat,</text>
<text x="905.0" y="516.4" font-family="Aptos, Arial, Helvetica, sans-serif" font-size="12" font-weight="400" text-anchor="middle" fill="#263238">context</text>
<rect x="1032" y="458" width="190" height="80" rx="12" fill="#000000" opacity="0.08"/>
<rect x="1030" y="455" width="190" height="80" rx="12" fill="#ffffff" stroke="#90a4ae" stroke-width="1.4"/>
<text x="1125.0" y="475.0" font-family="Aptos, Arial, Helvetica, sans-serif" font-size="15" font-weight="700" text-anchor="middle" fill="#37474f">VMHvl</text>
<text x="1125.0" y="502.2" font-family="Aptos, Arial, Helvetica, sans-serif" font-size="12" font-weight="400" text-anchor="middle" fill="#263238">aggression / mating /</text>
<text x="1125.0" y="516.4" font-family="Aptos, Arial, Helvetica, sans-serif" font-size="12" font-weight="400" text-anchor="middle" fill="#263238">defense modes</text>
<rect x="1252" y="458" width="170" height="80" rx="12" fill="#000000" opacity="0.08"/>
<rect x="1250" y="455" width="170" height="80" rx="12" fill="#ffffff" stroke="#90a4ae" stroke-width="1.4"/>
<text x="1335.0" y="475.0" font-family="Aptos, Arial, Helvetica, sans-serif" font-size="15" font-weight="700" text-anchor="middle" fill="#37474f">PAG</text>
<text x="1335.0" y="502.2" font-family="Aptos, Arial, Helvetica, sans-serif" font-size="12" font-weight="400" text-anchor="middle" fill="#263238">caregiving motor</text>
<text x="1335.0" y="516.4" font-family="Aptos, Arial, Helvetica, sans-serif" font-size="12" font-weight="400" text-anchor="middle" fill="#263238">patterns</text>
<rect x="827" y="643" width="180" height="78" rx="12" fill="#000000" opacity="0.08"/>
<rect x="825" y="640" width="180" height="78" rx="12" fill="#ffffff" stroke="#ba68c8" stroke-width="1.4"/>
<text x="915.0" y="660.0" font-family="Aptos, Arial, Helvetica, sans-serif" font-size="15" font-weight="700" text-anchor="middle" fill="#6a1b9a">PVN / SON</text>
<text x="915.0" y="687.2" font-family="Aptos, Arial, Helvetica, sans-serif" font-size="12" font-weight="400" text-anchor="middle" fill="#263238">oxytocin; milk</text>
<text x="915.0" y="701.4" font-family="Aptos, Arial, Helvetica, sans-serif" font-size="12" font-weight="400" text-anchor="middle" fill="#263238">ejection; stress</text>
<text x="915.0" y="715.6" font-family="Aptos, Arial, Helvetica, sans-serif" font-size="12" font-weight="400" text-anchor="middle" fill="#263238">control</text>
<rect x="1037" y="643" width="180" height="78" rx="12" fill="#000000" opacity="0.08"/>
<rect x="1035" y="640" width="180" height="78" rx="12" fill="#ffffff" stroke="#ba68c8" stroke-width="1.4"/>
<text x="1125.0" y="660.0" font-family="Aptos, Arial, Helvetica, sans-serif" font-size="15" font-weight="700" text-anchor="middle" fill="#6a1b9a">VTA / NAc</text>
<text x="1125.0" y="687.2" font-family="Aptos, Arial, Helvetica, sans-serif" font-size="12" font-weight="400" text-anchor="middle" fill="#263238">parental motivation</text>
<text x="1125.0" y="701.4" font-family="Aptos, Arial, Helvetica, sans-serif" font-size="12" font-weight="400" text-anchor="middle" fill="#263238">and reward</text>
<rect x="1247" y="643" width="180" height="78" rx="12" fill="#000000" opacity="0.08"/>
<rect x="1245" y="640" width="180" height="78" rx="12" fill="#ffffff" stroke="#ba68c8" stroke-width="1.4"/>
<text x="1335.0" y="660.0" font-family="Aptos, Arial, Helvetica, sans-serif" font-size="15" font-weight="700" text-anchor="middle" fill="#6a1b9a">Behavior</text>
<text x="1335.0" y="687.2" font-family="Aptos, Arial, Helvetica, sans-serif" font-size="12" font-weight="400" text-anchor="middle" fill="#263238">retrieval, grooming,</text>
<text x="1335.0" y="701.4" font-family="Aptos, Arial, Helvetica, sans-serif" font-size="12" font-weight="400" text-anchor="middle" fill="#263238">nursing, protection</text>
<line x1="1020" y1="191" x2="1085" y2="225" stroke="#ef6c00" stroke-width="2.5" fill="none" marker-end="url(#arrow)"/>
<line x1="1020" y1="316" x2="1085" y2="255" stroke="#ef6c00" stroke-width="2.5" fill="none" marker-end="url(#arrow)"/>
<path d="M910,357 C930,430 1085,430 1110,295" stroke="#607d8b" stroke-width="2" fill="none" marker-end="url(#arrow)"/>
<path d="M910,455 C960,375 1050,330 1100,295" stroke="#607d8b" stroke-width="2" fill="none" marker-end="url(#arrow)"/>
<path d="M1170,295 C1160,395 1130,430 1125,455" stroke="#607d8b" stroke-width="2" fill="none" marker-end="url(#arrow)"/>
<path d="M1200,295 C1280,350 1330,420 1335,455" stroke="#607d8b" stroke-width="2" fill="none" marker-end="url(#arrow)"/>
<path d="M1140,295 C1010,440 935,590 920,640" stroke="#607d8b" stroke-width="2" fill="none" marker-end="url(#arrow)"/>
<path d="M1170,295 C1185,450 1140,590 1125,640" stroke="#607d8b" stroke-width="2" fill="none" marker-end="url(#arrow)"/>
<path d="M1210,295 C1300,470 1330,590 1335,640" stroke="#607d8b" stroke-width="2" fill="none" marker-end="url(#arrow)"/>
<line x1="1085" y1="505" x2="1220" y2="505" stroke="#c62828" stroke-width="3" fill="none"/>
<line x1="1220" y1="485" x2="1220" y2="525" stroke="#c62828" stroke-width="3"/>
<text x="1125" y="545" font-family="Aptos, Arial, Helvetica, sans-serif" font-size="13" fill="#c62828">suppresses incompatible attack / mating responses</text>
<path d="M910,357 C820,500 815,620 825,665" stroke="#7b1fa2" stroke-width="2" fill="none" marker-end="url(#arrow)" stroke-dasharray="5 5"/>
<text x="812" y="605" font-family="Aptos, Arial, Helvetica, sans-serif" font-size="13" fill="#6a1b9a" transform="rotate(-75 812 605)">suckling feedback</text>
<rect x="805" y="790" width="585" height="40" rx="12" fill="#fffde7" stroke="#fbc02d" stroke-width="1.4"/>
<text x="1097.5" y="810.0" font-family="Aptos, Arial, Helvetica, sans-serif" font-size="14" font-weight="700" text-anchor="middle" fill="#795548">Parenting is predictive allostasis: reproductive state primes care</text>
<text x="1097.5" y="826.1" font-family="Aptos, Arial, Helvetica, sans-serif" font-size="14" font-weight="700" text-anchor="middle" fill="#795548">before infant variables fail.</text>
</svg>