<svg xmlns="http://www.w3.org/2000/svg" width="1400" height="980" viewBox="0 0 1400 980" role="img" aria-label="Sleep and circadian control loop">
<defs>
  <marker id="arrow" markerWidth="10" markerHeight="10" refX="8" refY="3" orient="auto" markerUnits="strokeWidth"><path d="M0,0 L0,6 L9,3 z" fill="#334155" /></marker>
  <marker id="arrowBlue" markerWidth="10" markerHeight="10" refX="8" refY="3" orient="auto" markerUnits="strokeWidth"><path d="M0,0 L0,6 L9,3 z" fill="#1D4ED8" /></marker>
  <marker id="arrowPurple" markerWidth="10" markerHeight="10" refX="8" refY="3" orient="auto" markerUnits="strokeWidth"><path d="M0,0 L0,6 L9,3 z" fill="#7C3AED" /></marker>
</defs>
<rect x="0" y="0" width="1400" height="980" fill="#FFFFFF"/>
<style>text{font-family:Arial, Helvetica, sans-serif;}</style>
<text x="180.0" y="35" text-anchor="middle" font-size="20" font-weight="700" fill="#0F172A">Body / world inputs</text>
<text x="490.0" y="35" text-anchor="middle" font-size="20" font-weight="700" fill="#0F172A">Routes and relays</text>
<text x="797.5" y="35" text-anchor="middle" font-size="20" font-weight="700" fill="#0F172A">Hypothalamic targets</text>
<text x="1135.0" y="35" text-anchor="middle" font-size="20" font-weight="700" fill="#0F172A">Outputs to body and brain</text>
<rect x="60" y="70" width="240" height="82" rx="16" fill="#E0F2FE" stroke="#0284C7" stroke-width="1.6"/>
<text x="180.0" y="93" text-anchor="middle" font-size="18" font-weight="700" fill="#0F172A">
<tspan x="180.0" dy="0">Light / dark cycle</tspan>
</text>
<text x="180.0" y="115" text-anchor="middle" font-size="11.5" fill="#334155">
<tspan x="180.0" dy="0">ambient light; prior light</tspan>
<tspan x="180.0" dy="14.5">history</tspan>
</text>
<rect x="60" y="174" width="240" height="82" rx="16" fill="#E0F2FE" stroke="#0284C7" stroke-width="1.6"/>
<text x="180.0" y="197" text-anchor="middle" font-size="18" font-weight="700" fill="#0F172A">
<tspan x="180.0" dy="0">Wake duration</tspan>
</text>
<text x="180.0" y="219" text-anchor="middle" font-size="11.5" fill="#334155">
<tspan x="180.0" dy="0">adenosine; local sleep</tspan>
<tspan x="180.0" dy="14.5">pressure</tspan>
</text>
<rect x="60" y="278" width="240" height="86" rx="16" fill="#E0F2FE" stroke="#0284C7" stroke-width="1.6"/>
<text x="180.0" y="301" text-anchor="middle" font-size="18" font-weight="700" fill="#0F172A">
<tspan x="180.0" dy="0">Energy state</tspan>
</text>
<text x="180.0" y="323" text-anchor="middle" font-size="11.5" fill="#334155">
<tspan x="180.0" dy="0">ghrelin, leptin, glucose,</tspan>
<tspan x="180.0" dy="14.5">meals</tspan>
</text>
<rect x="60" y="386" width="240" height="86" rx="16" fill="#E0F2FE" stroke="#0284C7" stroke-width="1.6"/>
<text x="180.0" y="409" text-anchor="middle" font-size="18" font-weight="700" fill="#0F172A">
<tspan x="180.0" dy="0">Stress / emotion /</tspan>
<tspan x="180.0" dy="19">pain</tspan>
</text>
<text x="180.0" y="450" text-anchor="middle" font-size="11.5" fill="#334155">
<tspan x="180.0" dy="0">amygdala, BNST, threat,</tspan>
<tspan x="180.0" dy="14.5">novelty</tspan>
</text>
<rect x="60" y="494" width="240" height="86" rx="16" fill="#E0F2FE" stroke="#0284C7" stroke-width="1.6"/>
<text x="180.0" y="517" text-anchor="middle" font-size="18" font-weight="700" fill="#0F172A">
<tspan x="180.0" dy="0">Body condition</tspan>
</text>
<text x="180.0" y="539" text-anchor="middle" font-size="11.5" fill="#334155">
<tspan x="180.0" dy="0">temperature, inflammation,</tspan>
<tspan x="180.0" dy="14.5">illness</tspan>
</text>
<rect x="60" y="602" width="240" height="86" rx="16" fill="#E0F2FE" stroke="#0284C7" stroke-width="1.6"/>
<text x="180.0" y="625" text-anchor="middle" font-size="18" font-weight="700" fill="#0F172A">
<tspan x="180.0" dy="0">Learned timing</tspan>
</text>
<text x="180.0" y="647" text-anchor="middle" font-size="11.5" fill="#334155">
<tspan x="180.0" dy="0">social schedule, routines,</tspan>
<tspan x="180.0" dy="14.5">context</tspan>
</text>
<rect x="365" y="90" width="250" height="86" rx="16" fill="#ECFDF5" stroke="#059669" stroke-width="1.6"/>
<text x="490.0" y="113" text-anchor="middle" font-size="17" font-weight="700" fill="#0F172A">
<tspan x="490.0" dy="0">ipRGCs → RHT</tspan>
</text>
<text x="490.0" y="134" text-anchor="middle" font-size="11.5" fill="#334155">
<tspan x="490.0" dy="0">melanopsin retinal input</tspan>
</text>
<rect x="365" y="206" width="250" height="86" rx="16" fill="#ECFDF5" stroke="#059669" stroke-width="1.6"/>
<text x="490.0" y="229" text-anchor="middle" font-size="17" font-weight="700" fill="#0F172A">
<tspan x="490.0" dy="0">Basal forebrain /</tspan>
<tspan x="490.0" dy="18">cortex</tspan>
</text>
<text x="490.0" y="268" text-anchor="middle" font-size="11.5" fill="#334155">
<tspan x="490.0" dy="0">sleep-pressure signals</tspan>
</text>
<rect x="365" y="322" width="250" height="86" rx="16" fill="#ECFDF5" stroke="#059669" stroke-width="1.6"/>
<text x="490.0" y="345" text-anchor="middle" font-size="17" font-weight="700" fill="#0F172A">
<tspan x="490.0" dy="0">Endocrine / metabolic</tspan>
<tspan x="490.0" dy="18">routes</tspan>
</text>
<text x="490.0" y="384" text-anchor="middle" font-size="11.5" fill="#334155">
<tspan x="490.0" dy="0">blood-borne body state</tspan>
</text>
<rect x="365" y="438" width="250" height="86" rx="16" fill="#ECFDF5" stroke="#059669" stroke-width="1.6"/>
<text x="490.0" y="461" text-anchor="middle" font-size="17" font-weight="700" fill="#0F172A">
<tspan x="490.0" dy="0">Limbic and cortical</tspan>
<tspan x="490.0" dy="18">context</tspan>
</text>
<text x="490.0" y="500" text-anchor="middle" font-size="11.5" fill="#334155">
<tspan x="490.0" dy="0">emotion, memory, planning</tspan>
</text>
<rect x="365" y="554" width="250" height="86" rx="16" fill="#ECFDF5" stroke="#059669" stroke-width="1.6"/>
<text x="490.0" y="577" text-anchor="middle" font-size="17" font-weight="700" fill="#0F172A">
<tspan x="490.0" dy="0">Brainstem / autonomic</tspan>
<tspan x="490.0" dy="18">relays</tspan>
</text>
<text x="490.0" y="616" text-anchor="middle" font-size="11.5" fill="#334155">
<tspan x="490.0" dy="0">visceral and arousal state</tspan>
</text>
<rect x="675" y="94" width="245" height="92" rx="16" fill="#FEF3C7" stroke="#D97706" stroke-width="1.6"/>
<text x="797.5" y="117" text-anchor="middle" font-size="18" font-weight="700" fill="#0F172A">
<tspan x="797.5" dy="0">SCN</tspan>
</text>
<text x="797.5" y="139" text-anchor="middle" font-size="11.5" fill="#334155">
<tspan x="797.5" dy="0">master circadian clock</tspan>
</text>
<rect x="675" y="216" width="245" height="92" rx="16" fill="#FEF3C7" stroke="#D97706" stroke-width="1.6"/>
<text x="797.5" y="239" text-anchor="middle" font-size="18" font-weight="700" fill="#0F172A">
<tspan x="797.5" dy="0">VLPO / MnPO</tspan>
</text>
<text x="797.5" y="261" text-anchor="middle" font-size="11.5" fill="#334155">
<tspan x="797.5" dy="0">sleep-promoting GABA /</tspan>
<tspan x="797.5" dy="14.5">galanin</tspan>
</text>
<rect x="675" y="338" width="245" height="92" rx="16" fill="#FEF3C7" stroke="#D97706" stroke-width="1.6"/>
<text x="797.5" y="361" text-anchor="middle" font-size="18" font-weight="700" fill="#0F172A">
<tspan x="797.5" dy="0">Lateral hypothalamus</tspan>
</text>
<text x="797.5" y="383" text-anchor="middle" font-size="11.5" fill="#334155">
<tspan x="797.5" dy="0">orexin stabilizes</tspan>
<tspan x="797.5" dy="14.5">wakefulness</tspan>
</text>
<rect x="675" y="460" width="245" height="92" rx="16" fill="#FEF3C7" stroke="#D97706" stroke-width="1.6"/>
<text x="797.5" y="483" text-anchor="middle" font-size="18" font-weight="700" fill="#0F172A">
<tspan x="797.5" dy="0">DMH / PVN</tspan>
</text>
<text x="797.5" y="505" text-anchor="middle" font-size="11.5" fill="#334155">
<tspan x="797.5" dy="0">endocrine and autonomic</tspan>
<tspan x="797.5" dy="14.5">output</tspan>
</text>
<rect x="675" y="582" width="245" height="92" rx="16" fill="#FEF3C7" stroke="#D97706" stroke-width="1.6"/>
<text x="797.5" y="605" text-anchor="middle" font-size="18" font-weight="700" fill="#0F172A">
<tspan x="797.5" dy="0">TMN and arousal</tspan>
<tspan x="797.5" dy="19">nodes</tspan>
</text>
<text x="797.5" y="646" text-anchor="middle" font-size="11.5" fill="#334155">
<tspan x="797.5" dy="0">histamine plus ascending</tspan>
<tspan x="797.5" dy="14.5">arousal</tspan>
</text>
<rect x="985" y="72" width="300" height="82" rx="16" fill="#FCE7F3" stroke="#BE185D" stroke-width="1.6"/>
<text x="1135.0" y="95" text-anchor="middle" font-size="17" font-weight="700" fill="#0F172A">
<tspan x="1135.0" dy="0">Pineal melatonin</tspan>
</text>
<text x="1135.0" y="116" text-anchor="middle" font-size="11.5" fill="#334155">
<tspan x="1135.0" dy="0">biological darkness</tspan>
</text>
<rect x="985" y="174" width="300" height="82" rx="16" fill="#FCE7F3" stroke="#BE185D" stroke-width="1.6"/>
<text x="1135.0" y="197" text-anchor="middle" font-size="17" font-weight="700" fill="#0F172A">
<tspan x="1135.0" dy="0">Adrenal / endocrine</tspan>
<tspan x="1135.0" dy="18">timing</tspan>
</text>
<text x="1135.0" y="236" text-anchor="middle" font-size="11.5" fill="#334155">
<tspan x="1135.0" dy="0">cortisol, growth hormone,</tspan>
<tspan x="1135.0" dy="14.5">metabolism</tspan>
</text>
<rect x="985" y="276" width="300" height="82" rx="16" fill="#FCE7F3" stroke="#BE185D" stroke-width="1.6"/>
<text x="1135.0" y="299" text-anchor="middle" font-size="17" font-weight="700" fill="#0F172A">
<tspan x="1135.0" dy="0">Autonomic rhythms</tspan>
</text>
<text x="1135.0" y="320" text-anchor="middle" font-size="11.5" fill="#334155">
<tspan x="1135.0" dy="0">temperature, cardiovascular,</tspan>
<tspan x="1135.0" dy="14.5">respiration</tspan>
</text>
<rect x="985" y="378" width="300" height="82" rx="16" fill="#FCE7F3" stroke="#BE185D" stroke-width="1.6"/>
<text x="1135.0" y="401" text-anchor="middle" font-size="17" font-weight="700" fill="#0F172A">
<tspan x="1135.0" dy="0">NREM brain state</tspan>
</text>
<text x="1135.0" y="422" text-anchor="middle" font-size="11.5" fill="#334155">
<tspan x="1135.0" dy="0">slow waves, spindles, sensory</tspan>
<tspan x="1135.0" dy="14.5">gating</tspan>
</text>
<rect x="985" y="480" width="300" height="82" rx="16" fill="#FCE7F3" stroke="#BE185D" stroke-width="1.6"/>
<text x="1135.0" y="503" text-anchor="middle" font-size="17" font-weight="700" fill="#0F172A">
<tspan x="1135.0" dy="0">REM brain state</tspan>
</text>
<text x="1135.0" y="524" text-anchor="middle" font-size="11.5" fill="#334155">
<tspan x="1135.0" dy="0">cortical activation, atonia,</tspan>
<tspan x="1135.0" dy="14.5">variability</tspan>
</text>
<rect x="985" y="582" width="300" height="82" rx="16" fill="#FCE7F3" stroke="#BE185D" stroke-width="1.6"/>
<text x="1135.0" y="605" text-anchor="middle" font-size="17" font-weight="700" fill="#0F172A">
<tspan x="1135.0" dy="0">Maintenance mode</tspan>
</text>
<text x="1135.0" y="626" text-anchor="middle" font-size="11.5" fill="#334155">
<tspan x="1135.0" dy="0">glymphatic clearance,</tspan>
<tspan x="1135.0" dy="14.5">synaptic remodeling</tspan>
</text>
<rect x="365" y="750" width="555" height="92" rx="16" fill="#EDE9FE" stroke="#7C3AED" stroke-width="1.6"/>
<text x="642.5" y="773" text-anchor="middle" font-size="18" font-weight="700" fill="#0F172A">
<tspan x="642.5" dy="0">Upward projections bias behavior</tspan>
</text>
<text x="642.5" y="795" text-anchor="middle" font-size="11.5" fill="#334155">
<tspan x="642.5" dy="0">VTA, nucleus accumbens, amygdala, BNST,</tspan>
<tspan x="642.5" dy="14.5">hippocampus, cortex, PAG</tspan>
</text>
<rect x="985" y="750" width="300" height="92" rx="16" fill="#EDE9FE" stroke="#7C3AED" stroke-width="1.6"/>
<text x="1135.0" y="773" text-anchor="middle" font-size="17" font-weight="700" fill="#0F172A">
<tspan x="1135.0" dy="0">Behavioral outputs</tspan>
</text>
<text x="1135.0" y="794" text-anchor="middle" font-size="11.5" fill="#334155">
<tspan x="1135.0" dy="0">sleep seeking, light</tspan>
<tspan x="1135.0" dy="14.5">avoidance, vigilance,</tspan>
<tspan x="1135.0" dy="14.5">foraging, wake maintenance</tspan>
</text>
<line x1="300" y1="111" x2="365" y2="133" stroke="#334155" stroke-width="2.2" marker-end="url(#arrow)"/>
<line x1="300" y1="215" x2="365" y2="249" stroke="#334155" stroke-width="2.2" marker-end="url(#arrow)"/>
<line x1="300" y1="321" x2="365" y2="365" stroke="#334155" stroke-width="2.2" marker-end="url(#arrow)"/>
<line x1="300" y1="429" x2="365" y2="481" stroke="#334155" stroke-width="2.2" marker-end="url(#arrow)"/>
<line x1="300" y1="537" x2="365" y2="597" stroke="#334155" stroke-width="2.2" marker-end="url(#arrow)"/>
<line x1="300" y1="645" x2="365" y2="481" stroke="#334155" stroke-width="2.2" marker-end="url(#arrow)"/>
<line x1="615" y1="133" x2="675" y2="140" stroke="#334155" stroke-width="2.2" marker-end="url(#arrow)"/>
<line x1="615" y1="249" x2="675" y2="262" stroke="#334155" stroke-width="2.2" marker-end="url(#arrow)"/>
<line x1="615" y1="365" x2="675" y2="384" stroke="#334155" stroke-width="2.2" marker-end="url(#arrow)"/>
<line x1="615" y1="481" x2="675" y2="384" stroke="#334155" stroke-width="2.2" marker-end="url(#arrow)"/>
<line x1="615" y1="597" x2="675" y2="628" stroke="#334155" stroke-width="2.2" marker-end="url(#arrow)"/>
<line x1="615" y1="597" x2="675" y2="506" stroke="#334155" stroke-width="2.2" marker-end="url(#arrow)"/>
<line x1="920" y1="140" x2="985" y2="113" stroke="#334155" stroke-width="2.2" marker-end="url(#arrow)"/>
<line x1="920" y1="506" x2="985" y2="215" stroke="#334155" stroke-width="2.2" marker-end="url(#arrow)"/>
<line x1="920" y1="506" x2="985" y2="317" stroke="#334155" stroke-width="2.2" marker-end="url(#arrow)"/>
<line x1="920" y1="262" x2="985" y2="419" stroke="#334155" stroke-width="2.2" marker-end="url(#arrow)"/>
<line x1="920" y1="628" x2="985" y2="521" stroke="#334155" stroke-width="2.2" marker-end="url(#arrow)"/>
<line x1="920" y1="262" x2="985" y2="623" stroke="#334155" stroke-width="2.2" marker-end="url(#arrow)"/>
<line x1="920" y1="384" x2="985" y2="623" stroke="#334155" stroke-width="2.2" marker-end="url(#arrow)"/>
<line x1="920" y1="796" x2="985" y2="796" stroke="#7C3AED" stroke-width="2.2" marker-end="url(#arrowPurple)"/>
<path d="M 1135 842 C 1080 945, 220 945, 175 842" fill="none" stroke="#64748B" stroke-width="2.2" marker-end="url(#arrow)" stroke-dasharray="7 7"/>
<rect x="60" y="765" width="240" height="82" rx="16" fill="#F8FAFC" stroke="#CBD5E1" stroke-width="1.6"/>
<text x="180.0" y="788" text-anchor="middle" font-size="16" font-weight="700" fill="#0F172A">
<tspan x="180.0" dy="0">Control logic</tspan>
</text>
<text x="180.0" y="808" text-anchor="middle" font-size="11.5" fill="#334155">
<tspan x="180.0" dy="0">circadian prediction +</tspan>
<tspan x="180.0" dy="14.5">sleep pressure + body</tspan>
<tspan x="180.0" dy="14.5">context</tspan>
</text>
</svg>