<svg xmlns="http://www.w3.org/2000/svg" width="1160" height="520" viewBox="0 0 1160 520">
  <!-- Background -->
  <rect x="0" y="0" width="1160" height="520" fill="#ffffff" />
  
  <!-- Title and column headers -->
  <text x="580.0" y="40" font-family="Helvetica Neue, Helvetica, Arial, sans-serif" font-size="20" font-weight="bold" fill="#073642" text-anchor="middle">The Hypothalamic Thermoregulation Circuit</text>
  <text x="120.0" y="80" font-family="Helvetica Neue, Helvetica, Arial, sans-serif" font-size="14" font-weight="bold" fill="#586e75" text-anchor="middle" letter-spacing="1">BODY INPUTS</text>
  <text x="350.0" y="80" font-family="Helvetica Neue, Helvetica, Arial, sans-serif" font-size="14" font-weight="bold" fill="#586e75" text-anchor="middle" letter-spacing="1">RELAYS</text>
  <text x="580.0" y="80" font-family="Helvetica Neue, Helvetica, Arial, sans-serif" font-size="14" font-weight="bold" fill="#586e75" text-anchor="middle" letter-spacing="1">HYPOTHALAMUS</text>
  <text x="810.0" y="80" font-family="Helvetica Neue, Helvetica, Arial, sans-serif" font-size="14" font-weight="bold" fill="#586e75" text-anchor="middle" letter-spacing="1">EFFERENT RELAYS</text>
  <text x="1040.0" y="80" font-family="Helvetica Neue, Helvetica, Arial, sans-serif" font-size="14" font-weight="bold" fill="#586e75" text-anchor="middle" letter-spacing="1">EFFECTORS</text>
  
  <!-- ===== Connectors (lines stop short; arrowheads are baked paths) ===== -->
  <path d="M 210 150 L 248 150" fill="none" stroke="#586e75" stroke-width="2" stroke-linecap="butt" />
  <path d="M 258,150 L 246,155 L 246,145 Z" fill="#586e75" />
  <path d="M 210 450 L 248 450" fill="none" stroke="#586e75" stroke-width="2" stroke-linecap="butt" />
  <path d="M 258,450 L 246,455 L 246,445 Z" fill="#586e75" />
  <path d="M 350 418 L 350 192" fill="none" stroke="#586e75" stroke-width="2" stroke-linecap="butt" />
  <path d="M 350,182 L 355,194 L 345,194 Z" fill="#586e75" />
  <path d="M 210 300 L 478 300" fill="none" stroke="#dc322f" stroke-width="2" stroke-linecap="butt" stroke-dasharray="6,5" />
  <path d="M 488,300 L 476,305 L 476,295 Z" fill="#dc322f" />
  <path d="M 440 150 C 472 150, 472 260, 478 260" fill="none" stroke="#586e75" stroke-width="2" stroke-linecap="butt" />
  <path d="M 488,260 L 476,265 L 476,255 Z" fill="#586e75" />
  <path d="M 670 260 C 702 260, 702 150, 708 150" fill="none" stroke="#586e75" stroke-width="2" stroke-linecap="butt" />
  <path d="M 718,150 L 706,155 L 706,145 Z" fill="#586e75" />
  <path d="M 670 340 C 702 340, 702 370, 708 370" fill="none" stroke="#586e75" stroke-width="2" stroke-linecap="butt" />
  <path d="M 718,370 L 706,375 L 706,365 Z" fill="#586e75" />
  <path d="M 900 150 C 932 150, 932 120, 938 120" fill="none" stroke="#586e75" stroke-width="2" stroke-linecap="butt" />
  <path d="M 948,120 L 936,125 L 936,115 Z" fill="#586e75" />
  <path d="M 900 352 C 932 352, 932 260, 938 260" fill="none" stroke="#586e75" stroke-width="2" stroke-linecap="butt" />
  <path d="M 948,260 L 936,265 L 936,255 Z" fill="#586e75" />
  <path d="M 900 364 C 932 364, 932 320, 938 320" fill="none" stroke="#586e75" stroke-width="2" stroke-linecap="butt" />
  <path d="M 948,320 L 936,325 L 936,315 Z" fill="#586e75" />
  <path d="M 900 376 C 932 376, 932 380, 938 380" fill="none" stroke="#586e75" stroke-width="2" stroke-linecap="butt" />
  <path d="M 948,380 L 936,385 L 936,375 Z" fill="#586e75" />
  <path d="M 900 388 C 932 388, 932 440, 938 440" fill="none" stroke="#586e75" stroke-width="2" stroke-linecap="butt" />
  <path d="M 948,440 L 936,445 L 936,435 Z" fill="#586e75" />
  
  <!-- ===== Column 1: body inputs ===== -->
  <rect x="30" y="120" width="180" height="60" rx="6" ry="6" fill="#f4f6f6" stroke="#93a1a1" stroke-width="2" />
  <text x="120.0" y="145" font-family="Helvetica Neue, Helvetica, Arial, sans-serif" font-size="14" font-weight="bold" fill="#073642" text-anchor="middle">Skin Sensors</text>
  <text x="120.0" y="165" font-family="Helvetica Neue, Helvetica, Arial, sans-serif" font-size="12" font-weight="normal" fill="#586e75" text-anchor="middle">TRPM8 / TRPV1</text>
  <rect x="30" y="270" width="180" height="60" rx="6" ry="6" fill="#f4f6f6" stroke="#93a1a1" stroke-width="2" />
  <text x="120.0" y="295" font-family="Helvetica Neue, Helvetica, Arial, sans-serif" font-size="14" font-weight="bold" fill="#073642" text-anchor="middle">Core Temperature</text>
  <text x="120.0" y="315" font-family="Helvetica Neue, Helvetica, Arial, sans-serif" font-size="12" font-weight="normal" fill="#586e75" text-anchor="middle">Arterial Blood</text>
  <rect x="30" y="420" width="180" height="60" rx="6" ry="6" fill="#f4f6f6" stroke="#93a1a1" stroke-width="2" />
  <text x="120.0" y="445" font-family="Helvetica Neue, Helvetica, Arial, sans-serif" font-size="14" font-weight="bold" fill="#073642" text-anchor="middle">Visceral Afferents</text>
  <text x="120.0" y="465" font-family="Helvetica Neue, Helvetica, Arial, sans-serif" font-size="12" font-weight="normal" fill="#586e75" text-anchor="middle">Metabolic Data</text>
  
  <!-- ===== Column 2: brainstem relays ===== -->
  <rect x="260" y="120" width="180" height="60" rx="6" ry="6" fill="#f4f6f6" stroke="#93a1a1" stroke-width="2" />
  <text x="350.0" y="145" font-family="Helvetica Neue, Helvetica, Arial, sans-serif" font-size="14" font-weight="bold" fill="#073642" text-anchor="middle">LPB</text>
  <text x="350.0" y="165" font-family="Helvetica Neue, Helvetica, Arial, sans-serif" font-size="12" font-weight="normal" fill="#586e75" text-anchor="middle">Lat. Parabrachial N.</text>
  <rect x="260" y="420" width="180" height="60" rx="6" ry="6" fill="#f4f6f6" stroke="#93a1a1" stroke-width="2" />
  <text x="350.0" y="445" font-family="Helvetica Neue, Helvetica, Arial, sans-serif" font-size="14" font-weight="bold" fill="#073642" text-anchor="middle">NTS</text>
  <text x="350.0" y="465" font-family="Helvetica Neue, Helvetica, Arial, sans-serif" font-size="12" font-weight="normal" fill="#586e75" text-anchor="middle">via Vagus Nerve</text>
  
  <!-- ===== Column 3: hypothalamus ===== -->
  <rect x="490" y="220" width="180" height="160" rx="6" ry="6" fill="#fef6f1" stroke="#cb4b16" stroke-width="3" />
  <text x="580.0" y="250" font-family="Helvetica Neue, Helvetica, Arial, sans-serif" font-size="14" font-weight="bold" fill="#073642" text-anchor="middle">Preoptic Area</text>
  <text x="580.0" y="270" font-family="Helvetica Neue, Helvetica, Arial, sans-serif" font-size="14" font-weight="bold" fill="#073642" text-anchor="middle">(POA)</text>
  <text x="580.0" y="310" font-family="Helvetica Neue, Helvetica, Arial, sans-serif" font-size="12" font-weight="normal" fill="#586e75" text-anchor="middle">MnPO &amp; MPO</text>
  <text x="580.0" y="340" font-family="Helvetica Neue, Helvetica, Arial, sans-serif" font-size="12" font-weight="normal" fill="#586e75" text-anchor="middle">Disinhibitory Switch</text>
  <text x="580.0" y="360" font-family="Helvetica Neue, Helvetica, Arial, sans-serif" font-size="12" font-weight="normal" fill="#586e75" text-anchor="middle">Integration</text>
  
  <!-- ===== Column 4: efferent relays ===== -->
  <rect x="720" y="120" width="180" height="60" rx="6" ry="6" fill="#f4f6f6" stroke="#93a1a1" stroke-width="2" />
  <text x="810.0" y="145" font-family="Helvetica Neue, Helvetica, Arial, sans-serif" font-size="14" font-weight="bold" fill="#073642" text-anchor="middle">PAG / Cortex</text>
  <text x="810.0" y="165" font-family="Helvetica Neue, Helvetica, Arial, sans-serif" font-size="12" font-weight="normal" fill="#586e75" text-anchor="middle">Limbic Forebrain</text>
  <rect x="720" y="340" width="180" height="60" rx="6" ry="6" fill="#f4f6f6" stroke="#93a1a1" stroke-width="2" />
  <text x="810.0" y="365" font-family="Helvetica Neue, Helvetica, Arial, sans-serif" font-size="14" font-weight="bold" fill="#073642" text-anchor="middle">DMH &amp; Raphe</text>
  <text x="810.0" y="385" font-family="Helvetica Neue, Helvetica, Arial, sans-serif" font-size="12" font-weight="normal" fill="#586e75" text-anchor="middle">Autonomic Premotor</text>
  
  <!-- ===== Column 5: effectors ===== -->
  <rect x="950" y="100" width="180" height="40" rx="6" ry="6" fill="#f4f6f6" stroke="#2aa198" stroke-width="2" />
  <text x="1040.0" y="125" font-family="Helvetica Neue, Helvetica, Arial, sans-serif" font-size="14" font-weight="bold" fill="#073642" text-anchor="middle">Behavioral Defense</text>
  <rect x="950" y="240" width="180" height="40" rx="6" ry="6" fill="#f4f6f6" stroke="#2aa198" stroke-width="2" />
  <text x="1040.0" y="265" font-family="Helvetica Neue, Helvetica, Arial, sans-serif" font-size="14" font-weight="bold" fill="#073642" text-anchor="middle">Vasomotor Control</text>
  <rect x="950" y="300" width="180" height="40" rx="6" ry="6" fill="#f4f6f6" stroke="#2aa198" stroke-width="2" />
  <text x="1040.0" y="325" font-family="Helvetica Neue, Helvetica, Arial, sans-serif" font-size="14" font-weight="bold" fill="#073642" text-anchor="middle">BAT (Thermogenesis)</text>
  <rect x="950" y="360" width="180" height="40" rx="6" ry="6" fill="#f4f6f6" stroke="#2aa198" stroke-width="2" />
  <text x="1040.0" y="385" font-family="Helvetica Neue, Helvetica, Arial, sans-serif" font-size="14" font-weight="bold" fill="#073642" text-anchor="middle">Muscle (Shivering)</text>
  <rect x="950" y="420" width="180" height="40" rx="6" ry="6" fill="#f4f6f6" stroke="#2aa198" stroke-width="2" />
  <text x="1040.0" y="445" font-family="Helvetica Neue, Helvetica, Arial, sans-serif" font-size="14" font-weight="bold" fill="#073642" text-anchor="middle">Sweat Glands</text>
</svg>
