<?xml version="1.0" encoding="UTF-8"?>
<!-- Generated by Pixelmator Pro 3.8 -->
<svg width="1120" height="700" viewBox="0 0 1120 700" xmlns="http://www.w3.org/2000/svg">
    <path id="Path" fill="#faf9f5" stroke="none" d="M 0 6 L 1120 6 L 1120 706 L 0 706 Z"/>
    <path id="path1" fill="#000000" stroke="#c8c8d0" stroke-width="2" stroke-dasharray="6 6" stroke-dashoffset="0" d="M 430 50 L 430 640"/>
    <text id="Ipsilateral" xml:space="preserve" x="168.151855" y="44" font-family="Helvetica" font-size="13" font-weight="700" fill="#8a8a9a">Ipsilateral</text>
    <text id="Contralateral" xml:space="preserve" x="733.405029" y="44" font-family="Helvetica" font-size="13" font-weight="700" fill="#8a8a9a">Contralateral</text>
    <text id="Location-and-intensity-" xml:space="preserve" x="502.078857" y="62" font-family="Helvetica" font-size="11" font-weight="700" fill="#4a4a4a">Location and intensity /</text>
    <text id="sensorimotor-guidance" xml:space="preserve" x="502.183105" y="75" font-family="Helvetica" font-size="11" font-weight="700" fill="#4a4a4a">sensorimotor guidance</text>
    <text id="Body-state-" xml:space="preserve" x="727.022705" y="62" font-family="Helvetica" font-size="11" font-weight="700" fill="#4a4a4a">Body-state /</text>
    <text id="thermal-nociceptive" xml:space="preserve" x="706.040039" y="75" font-family="Helvetica" font-size="11" font-weight="700" fill="#4a4a4a">thermal-nociceptive</text>
    <text id="Urgency-aversion" xml:space="preserve" x="904.190186" y="62" font-family="Helvetica" font-size="11" font-weight="700" fill="#4a4a4a">Urgency, aversion,</text>
    <text id="and-action" xml:space="preserve" x="925.497314" y="75" font-family="Helvetica" font-size="11" font-weight="700" fill="#4a4a4a">and action</text>
    <text id="Defense-autonomic-control-and" xml:space="preserve" x="650.318115" y="420" font-family="Helvetica" font-size="11" font-weight="700" fill="#8a6a2a">Defense, autonomic control, and learning</text>
    <path id="path2" fill="#000000" stroke="#2e8b2e" stroke-width="3" d="M 230 600 L 230 576"/>
    <path id="path3" fill="#2e8b2e" stroke="none" d="M 230 572 L 224 587 L 236 587 Z"/>
    <path id="path4" fill="#000000" stroke="#2e8b2e" stroke-width="3" d="M 230 528 L 230 500"/>
    <path id="path5" fill="#2e8b2e" stroke="none" d="M 230 488 L 224 503 L 236 503 Z"/>
    <path id="path6" fill="none" stroke="#2e8b2e" stroke-width="3" d="M 335 430 L 565 430 L 565 271"/>
    <path id="path7" fill="#2e8b2e" stroke="none" d="M 565 259 L 559 274 L 571 274 Z"/>
    <path id="path8" fill="none" stroke="#2e8b2e" stroke-width="3" d="M 565 385 L 760 385 L 760 271"/>
    <path id="path9" fill="#2e8b2e" stroke="none" d="M 760 259 L 754 274 L 766 274 Z"/>
    <path id="path10" fill="none" stroke="#2e8b2e" stroke-width="3" d="M 565 385 L 955 385 L 955 271"/>
    <path id="path11" fill="#2e8b2e" stroke="none" d="M 955 259 L 949 274 L 961 274 Z"/>
    <path id="path12" fill="#000000" stroke="#2e8b2e" stroke-width="3" d="M 565 207 L 565 156"/>
    <path id="path13" fill="#2e8b2e" stroke="none" d="M 565 144 L 559 159 L 571 159 Z"/>
    <path id="path14" fill="#000000" stroke="#2e8b2e" stroke-width="3" d="M 760 207 L 760 156"/>
    <path id="path15" fill="#2e8b2e" stroke="none" d="M 760 144 L 754 159 L 766 159 Z"/>
    <path id="path16" fill="#000000" stroke="#2e8b2e" stroke-width="3" d="M 955 207 L 955 156"/>
    <path id="path17" fill="#2e8b2e" stroke="none" d="M 955 144 L 949 159 L 961 159 Z"/>
    <path id="path18" fill="none" stroke="#c77c1e" stroke-width="3" d="M 565 430 L 565 470 L 648 470"/>
    <path id="path19" fill="#c77c1e" stroke="none" d="M 660 470 L 645 464 L 645 476 Z"/>
    <path id="path20" fill="none" stroke="#c77c1e" stroke-width="3" d="M 860 470 L 955 470 L 955 412"/>
    <path id="path21" fill="#c77c1e" stroke="none" d="M 955 400 L 949 415 L 961 415 Z"/>
    <path id="path22" fill="none" stroke="#c77c1e" stroke-width="2.5" d="M 760 496 L 760 548"/>
    <path id="path23" fill="#c77c1e" stroke="none" d="M 760 560 L 754 545 L 766 545 Z"/>
    <path id="path24" fill="none" stroke="#c77c1e" stroke-width="2.5" stroke-dasharray="7 5" stroke-dashoffset="0" d="M 955 496 L 955 584 L 872 584"/>
    <path id="path25" fill="#c77c1e" stroke="none" d="M 860 582 L 875 576 L 875 588 Z"/>
    <path id="path26" fill="none" stroke="#8a5aa8" stroke-width="2.5" stroke-dasharray="7 5" stroke-dashoffset="0" d="M 660 586 L 560 586"/>
    <path id="path27" fill="#8a5aa8" stroke="none" d="M 548 586 L 563 580 L 563 592 Z"/>
    <path id="path28" fill="none" stroke="#8a5aa8" stroke-width="2.5" stroke-dasharray="7 5" stroke-dashoffset="0" d="M 435 586 L 335 586 L 335 503"/>
    <path id="path29" fill="#8a5aa8" stroke="none" d="M 335 488 L 329 503 L 341 503 Z"/>
    <path id="path30" fill="#ffffff" stroke="#b8b8c0" stroke-width="1.5" d="M 348 630 C 348 646.568542 295.169586 660 230 660 C 164.830399 660 112 646.568542 112 630 C 112 613.431458 164.830399 600 230 600 C 295.169586 600 348 613.431458 348 630 Z"/>
    <text id="Free-nerve-endings" xml:space="preserve" x="163.378418" y="627" font-family="Helvetica" font-size="15" fill="#2a2a2a">Free nerve endings</text>
    <text id="nociceptors--thermoreceptors" xml:space="preserve" x="159.029785" y="644" font-family="Helvetica" font-size="10" fill="#2a2a2a">(nociceptors · thermoreceptors)</text>
    <path id="path31" fill="#7a6ed0" stroke="none" d="M 143 528 L 317 528 C 321.418274 528 325 531.581726 325 536 L 325 568 C 325 572.418274 321.418274 576 317 576 L 143 576 C 138.581726 576 135 572.418274 135 568 L 135 536 C 135 531.581726 138.581726 528 143 528 Z"/>
    <text id="Dorsal-root-ganglion" xml:space="preserve" x="161.377197" y="552" font-family="Helvetica" font-size="15" fill="#ffffff">Dorsal root ganglion</text>
    <text id="1st-order-cell-body" xml:space="preserve" x="183.256592" y="568" font-family="Helvetica" font-size="11" fill="#edeaf8">1st-order cell body</text>
    <path id="path32" fill="#4f71b8" stroke="none" d="M 118 400 L 342 400 C 346.418274 400 350 403.581726 350 408 L 350 480 C 350 484.418274 346.418274 488 342 488 L 118 488 C 113.581718 488 110 484.418274 110 480 L 110 408 C 110 403.581726 113.581718 400 118 400 Z"/>
    <text id="Spinal-dorsal-horn" xml:space="preserve" x="168.045898" y="422" font-family="Helvetica" font-size="15" fill="#ffffff">Spinal dorsal horn</text>
    <text id="Primary-afferents-terminate-in" xml:space="preserve" x="166.283813" y="440" font-family="Helvetica" font-size="9.5" fill="#e6eef8">Primary afferents terminate in</text>
    <text id="laminae-III-and-deeper" xml:space="preserve" x="152.18689" y="452" font-family="Helvetica" font-size="9.5" fill="#e6eef8">laminae I–II and deeper dorsal horn;</text>
    <text id="ascending-projection-neurons-chiefly" xml:space="preserve" x="151.1604" y="468" font-family="Helvetica" font-size="9.5" fill="#e6eef8">ascending projection neurons chiefly</text>
    <text id="in-lamina-I-and" xml:space="preserve" x="163.042358" y="480" font-family="Helvetica" font-size="9.5" fill="#e6eef8">in lamina I and deeper laminae</text>
    <path id="path33" fill="#d0d0d6" stroke="#b8b8c0" stroke-width="1.5" d="M 498 207 L 632 207 C 636.418274 207 640 210.581726 640 215 L 640 251 C 640 255.418274 636.418274 259 632 259 L 498 259 C 493.581726 259 490 255.418274 490 251 L 490 215 C 490 210.581726 493.581726 207 498 207 Z"/>
    <text id="VPL-thalamus" xml:space="preserve" x="517.082764" y="236" font-family="Helvetica" font-size="15" fill="#2a2a2a">VPL thalamus</text>
    <path id="path34" fill="#d0d0d6" stroke="#9a9aa6" stroke-width="1.8" stroke-dasharray="6 4" stroke-dashoffset="0" d="M 686 207 L 834 207 C 838.418274 207 842 210.581726 842 215 L 842 251 C 842 255.418274 838.418274 259 834 259 L 686 259 C 681.581726 259 678 255.418274 678 251 L 678 215 C 678 210.581726 681.581726 207 686 207 Z"/>
    <text id="Post-ventromedial-region" xml:space="preserve" x="684.294189" y="228" font-family="Helvetica" font-size="13" fill="#2a2a2a">Post. ventromedial region</text>
    <text id="VMpo-proposed--contested" xml:space="preserve" x="690.40918" y="244" font-family="Helvetica" font-size="10" fill="#555555">“VMpo” proposed — contested</text>
    <path id="path35" fill="#d0d0d6" stroke="#b8b8c0" stroke-width="1.5" d="M 874 207 L 1036 207 C 1040.418335 207 1044 210.581726 1044 215 L 1044 251 C 1044 255.418274 1040.418335 259 1036 259 L 874 259 C 869.581726 259 866 255.418274 866 251 L 866 215 C 866 210.581726 869.581726 207 874 207 Z"/>
    <text id="MDvc--CL-" xml:space="preserve" x="908.13916" y="228" font-family="Helvetica" font-size="14" fill="#2a2a2a">MDvc · CL · Pf</text>
    <text id="medial--intralaminar" xml:space="preserve" x="908.48291" y="244" font-family="Helvetica" font-size="10" fill="#555555">medial / intralaminar</text>
    <path id="path36" fill="#b0413e" stroke="none" d="M 498 92 L 632 92 C 636.418274 92 640 95.581726 640 100 L 640 136 C 640 140.418274 636.418274 144 632 144 L 498 144 C 493.581726 144 490 140.418274 490 136 L 490 100 C 490 95.581726 493.581726 92 498 92 Z"/>
    <text id="S1" xml:space="preserve" x="553.214844" y="116" font-family="Helvetica" font-size="16" fill="#ffffff">S1</text>
    <text id="postcentral-gyrus" xml:space="preserve" x="521.118896" y="132" font-family="Helvetica" font-size="11" fill="#f2d6d4">postcentral gyrus</text>
    <path id="path37" fill="#b0413e" stroke="none" d="M 686 92 L 834 92 C 838.418274 92 842 95.581726 842 100 L 842 136 C 842 140.418274 838.418274 144 834 144 L 686 144 C 681.581726 144 678 140.418274 678 136 L 678 100 C 678 95.581726 681.581726 92 686 92 Z"/>
    <text id="Insular-cortex" xml:space="preserve" x="713.481689" y="114" font-family="Helvetica" font-size="15" fill="#ffffff">Insular cortex</text>
    <text id="dorsal-posterior" xml:space="preserve" x="724.039551" y="130" font-family="Helvetica" font-size="10" fill="#f2d6d4">dorsal posterior</text>
    <path id="path38" fill="#b0413e" stroke="none" d="M 874 92 L 1036 92 C 1040.418335 92 1044 95.581726 1044 100 L 1044 136 C 1044 140.418274 1040.418335 144 1036 144 L 874 144 C 869.581726 144 866 140.418274 866 136 L 866 100 C 866 95.581726 869.581726 92 874 92 Z"/>
    <text id="Anterior-cingulate" xml:space="preserve" x="895.133301" y="114" font-family="Helvetica" font-size="15" fill="#ffffff">Anterior cingulate</text>
    <text id="ACC" xml:space="preserve" x="942.443359" y="130" font-family="Helvetica" font-size="10" fill="#f2d6d4">ACC</text>
    <path id="path39" fill="#e8b96a" stroke="#c77c1e" stroke-width="1.5" d="M 668 444 L 852 444 C 856.418274 444 860 447.581726 860 452 L 860 488 C 860 492.418274 856.418274 496 852 496 L 668 496 C 663.581726 496 660 492.418274 660 488 L 660 452 C 660 447.581726 663.581726 444 668 444 Z"/>
    <text id="Parabrachial-nucleus" xml:space="preserve" x="693.12793" y="466" font-family="Helvetica" font-size="14" fill="#2a2a2a">Parabrachial nucleus</text>
    <text id="lateral-PBN--pons" xml:space="preserve" x="714.091309" y="482" font-family="Helvetica" font-size="10" fill="#5a4a2a">lateral PBN — pons</text>
    <path id="path40" fill="#e8b96a" stroke="#c77c1e" stroke-width="1.5" d="M 874 444 L 1036 444 C 1040.418335 444 1044 447.581726 1044 452 L 1044 488 C 1044 492.418274 1040.418335 496 1036 496 L 874 496 C 869.581726 496 866 492.418274 866 488 L 866 452 C 866 447.581726 869.581726 444 874 444 Z"/>
    <text id="Amygdala" xml:space="preserve" x="922.372559" y="466" font-family="Helvetica" font-size="14" fill="#2a2a2a">Amygdala</text>
    <text id="central-nucleus-CeA" xml:space="preserve" x="905.423828" y="482" font-family="Helvetica" font-size="10" fill="#5a4a2a">central nucleus (CeA)</text>
    <path id="path41" fill="#d9c3e8" stroke="#8a5aa8" stroke-width="1.5" d="M 668 560 L 852 560 C 856.418274 560 860 563.581726 860 568 L 860 604 C 860 608.418274 856.418274 612 852 612 L 668 612 C 663.581726 612 660 608.418274 660 604 L 660 568 C 660 563.581726 663.581726 560 668 560 Z"/>
    <text id="PAG--hypothalamus" xml:space="preserve" x="694.316406" y="582" font-family="Helvetica" font-size="14" fill="#2a2a2a">PAG · hypothalamus</text>
    <text id="periaqueductal-gray" xml:space="preserve" x="714.081543" y="598" font-family="Helvetica" font-size="10" fill="#4a3a5a">periaqueductal gray</text>
    <path id="path42" fill="#d9c3e8" stroke="#8a5aa8" stroke-width="1.5" d="M 408 560 L 540 560 C 544.418274 560 548 563.581726 548 568 L 548 604 C 548 608.418274 544.418274 612 540 612 L 408 612 C 403.581726 612 400 608.418274 400 604 L 400 568 C 400 563.581726 403.581726 560 408 560 Z"/>
    <text id="RVM--LC" xml:space="preserve" x="442.285156" y="582" font-family="Helvetica" font-size="14" fill="#2a2a2a">RVM · LC</text>
    <text id="bulbospinal-relay" xml:space="preserve" x="434.475586" y="598" font-family="Helvetica" font-size="10" fill="#4a3a5a">bulbospinal relay</text>
    <text id="Anterolateral-and-related" xml:space="preserve" x="402" y="301" font-family="Helvetica" font-size="13" font-weight="700" fill="#2a2a2a">Anterolateral and related</text>
    <text id="ascending-nociceptive-pathways" xml:space="preserve" x="356" y="323" font-family="Helvetica" font-size="13" font-weight="700" fill="#2a2a2a">ascending nociceptive pathways</text>
    <text id="Crosses-in-the-cord" xml:space="preserve" x="370" y="450" font-family="Helvetica" font-size="12" font-weight="700" fill="#2a2a2a">Crosses in the cord</text>
    <text id="anterior-white-commissure" xml:space="preserve" x="368" y="466" font-family="Helvetica" font-size="10" fill="#2a2a2a">(anterior white commissure)</text>
    <text id="Spinoparabrachial" xml:space="preserve" x="570" y="440" font-family="Helvetica" font-size="12" font-weight="700" fill="#c77c1e">Spinoparabrachial</text>
    <text id="bypasses-thalamus" xml:space="preserve" x="570" y="459" font-family="Helvetica" font-size="10" fill="#c77c1e">bypasses thalamus</text>
    <text id="Descending-modulation" xml:space="preserve" x="404" y="637" font-family="Helvetica" font-size="12" font-weight="700" fill="#8a5aa8">Descending modulation</text>
    <text id="closes-the-loop-onto" xml:space="preserve" x="397" y="656" font-family="Helvetica" font-size="10" fill="#8a5aa8">closes the loop onto the dorsal horn</text>
    <g id="Group">
        <path id="path43" fill="#000000" stroke="#2e8b2e" stroke-width="3" d="M 60 120 L 96 120"/>
        <text id="Ascending--thalamic" xml:space="preserve" x="103" y="126" font-family="Helvetica" font-size="11" fill="#2a2a2a">Ascending — thalamic</text>
        <path id="path44" fill="#000000" stroke="#c77c1e" stroke-width="3" d="M 60 142 L 96 142"/>
        <text id="Ascending--spinoparabrachial" xml:space="preserve" x="103" y="148" font-family="Helvetica" font-size="11" fill="#2a2a2a">Ascending — spinoparabrachial</text>
        <path id="path45" fill="#000000" stroke="#8a5aa8" stroke-width="2.5" stroke-dasharray="7 5" stroke-dashoffset="0" d="M 60 164 L 96 164"/>
        <text id="text1" xml:space="preserve" x="103" y="170" font-family="Helvetica" font-size="11" fill="#2a2a2a">Descending modulation</text>
        <path id="path46" fill="#d0d0d6" stroke="#9a9aa6" stroke-width="1.8" stroke-dasharray="6 4" stroke-dashoffset="0" d="M 63 180 L 93 180 C 94.656853 180 96 181.34314 96 183 L 96 191 C 96 192.65686 94.656853 194 93 194 L 63 194 C 61.343147 194 60 192.65686 60 191 L 60 183 C 60 181.34314 61.343147 180 63 180 Z"/>
        <text id="Dashed-outline--contested" xml:space="preserve" x="103" y="193" font-family="Helvetica" font-size="11" fill="#2a2a2a">Dashed outline = contested entity</text>
    </g>
</svg>
