<?xml version="1.0" encoding="UTF-8"?>
<!-- Generated by Pixelmator Pro 3.8 -->
<svg width="680" height="700" viewBox="0 0 680 700" xmlns="http://www.w3.org/2000/svg">
    <path id="Path" fill="#ffffff" stroke="none" d="M 0 0 L 680 0 L 680 700 L 0 700 Z"/>
    <path id="path1" fill="#f1efe8" stroke="#5f5e5a" stroke-width="0.5" d="M 238 30 L 442 30 C 446.418274 30 450 33.581726 450 38 L 450 78 C 450 82.418274 446.418274 86 442 86 L 238 86 C 233.581726 86 230 82.418274 230 78 L 230 38 C 230 33.581726 233.581726 30 238 30 Z"/>
    <text id="Olfactory-epithelium" xml:space="preserve" x="270.320801" y="52" font-family="Helvetica" font-size="14" font-weight="700" fill="#444441">Olfactory epithelium</text>
    <text id="Bipolar-sensory-neurons-CN" xml:space="preserve" x="258.463867" y="70" font-family="Helvetica" font-size="12" fill="#5f5e5a">Bipolar sensory neurons, CN I</text>
    <path id="path2" fill="none" stroke="#5f5e5a" stroke-width="1.5" d="M 340 86 L 340 122"/>
    <path id="path3" fill="#5f5e5a" stroke="none" d="M 340 130 L 335 120 L 345 120 Z"/>
    <path id="path4" fill="#e1f5ee" stroke="#0f6e56" stroke-width="0.5" d="M 238 130 L 442 130 C 446.418274 130 450 133.581726 450 138 L 450 178 C 450 182.418274 446.418274 186 442 186 L 238 186 C 233.581726 186 230 182.418274 230 178 L 230 138 C 230 133.581726 233.581726 130 238 130 Z"/>
    <text id="Olfactory-bulb" xml:space="preserve" x="291.051758" y="152" font-family="Helvetica" font-size="14" font-weight="700" fill="#085041">Olfactory bulb</text>
    <text id="Glomeruli-mitral-and-tufted" xml:space="preserve" x="266.470703" y="170" font-family="Helvetica" font-size="12" fill="#0f6e56">Glomeruli, mitral and tufted</text>
    <path id="path5" fill="none" stroke="#5f5e5a" stroke-width="1.5" d="M 340 186 L 340 214"/>
    <path id="path6" fill="#5f5e5a" stroke="none" d="M 340 222 L 335 212 L 345 212 Z"/>
    <text id="ipsilateral" xml:space="preserve" x="497" y="150" font-family="Helvetica" font-size="12" fill="#5f5e5a">ipsilateral</text>
    <path id="path7" fill="#e1f5ee" stroke="#0f6e56" stroke-width="0.5" d="M 246 222 L 434 222 C 437.313721 222 440 224.686279 440 228 L 440 246 C 440 249.313721 437.313721 252 434 252 L 246 252 C 242.686295 252 240 249.313721 240 246 L 240 228 C 240 224.686279 242.686295 222 246 222 Z"/>
    <text id="Lateral-olfactory-tract" xml:space="preserve" x="282.475586" y="239" font-family="Helvetica" font-size="12" fill="#085041">Lateral olfactory tract</text>
    <path id="path8" fill="none" stroke="#5f5e5a" stroke-width="1.5" d="M 290 252 L 290 272 L 120 272 L 120 292"/>
    <path id="path9" fill="#5f5e5a" stroke="none" d="M 120 300 L 115 290 L 125 290 Z"/>
    <path id="path10" fill="none" stroke="#5f5e5a" stroke-width="1.5" d="M 320 252 L 320 280 L 266 280 L 266 292"/>
    <path id="path11" fill="#5f5e5a" stroke="none" d="M 266 300 L 261 290 L 271 290 Z"/>
    <path id="path12" fill="none" stroke="#5f5e5a" stroke-width="1.5" d="M 360 252 L 360 280 L 414 280 L 414 292"/>
    <path id="path13" fill="#5f5e5a" stroke="none" d="M 414 300 L 409 290 L 419 290 Z"/>
    <path id="path14" fill="none" stroke="#5f5e5a" stroke-width="1.5" d="M 390 252 L 390 272 L 560 272 L 560 292"/>
    <path id="path15" fill="#5f5e5a" stroke="none" d="M 560 300 L 555 290 L 565 290 Z"/>
    <path id="path16" fill="#eeedfe" stroke="#534ab7" stroke-width="0.5" d="M 58 300 L 182 300 C 186.418274 300 190 303.581726 190 308 L 190 348 C 190 352.418274 186.418274 356 182 356 L 58 356 C 53.581722 356 50 352.418274 50 348 L 50 308 C 50 303.581726 53.581722 300 58 300 Z"/>
    <text id="Ant-olfactory-n" xml:space="preserve" x="65.220703" y="322" font-family="Helvetica" font-size="14" font-weight="700" fill="#3c3489">Ant. olfactory n.</text>
    <text id="Crossing-route" xml:space="preserve" x="79.482422" y="340" font-family="Helvetica" font-size="12" fill="#534ab7">Crossing route</text>
    <path id="path17" fill="#eeedfe" stroke="#534ab7" stroke-width="0.5" d="M 208 300 L 324 300 C 328.418274 300 332 303.581726 332 308 L 332 348 C 332 352.418274 328.418274 356 324 356 L 208 356 C 203.581726 356 200 352.418274 200 348 L 200 308 C 200 303.581726 203.581726 300 208 300 Z"/>
    <text id="Olfactory-tubercle" xml:space="preserve" x="204.093262" y="322" font-family="Helvetica" font-size="14" font-weight="700" fill="#3c3489">Olfactory tubercle</text>
    <text id="Ventral-striatum" xml:space="preserve" x="222.313477" y="340" font-family="Helvetica" font-size="12" fill="#534ab7">Ventral striatum</text>
    <path id="path18" fill="#faece7" stroke="#993c1d" stroke-width="0.5" d="M 356 300 L 472 300 C 476.418274 300 480 303.581726 480 308 L 480 348 C 480 352.418274 476.418274 356 472 356 L 356 356 C 351.581726 356 348 352.418274 348 348 L 348 308 C 348 303.581726 351.581726 300 356 300 Z"/>
    <text id="Piriform-cortex" xml:space="preserve" x="362.207031" y="322" font-family="Helvetica" font-size="14" font-weight="700" fill="#712b13">Piriform cortex</text>
    <text id="3-layered-paleocortex" xml:space="preserve" x="354.799805" y="340" font-family="Helvetica" font-size="12" fill="#993c1d">3-layered paleocortex</text>
    <path id="path19" fill="#eeedfe" stroke="#534ab7" stroke-width="0.5" d="M 504 300 L 622 300 C 626.418274 300 630 303.581726 630 308 L 630 348 C 630 352.418274 626.418274 356 622 356 L 504 356 C 499.581726 356 496 352.418274 496 348 L 496 308 C 496 303.581726 499.581726 300 504 300 Z"/>
    <text id="Cortical-amygdala" xml:space="preserve" x="501.200195" y="322" font-family="Helvetica" font-size="14" font-weight="700" fill="#3c3489">Cortical amygdala</text>
    <text id="Periamygdaloid" xml:space="preserve" x="520.144531" y="340" font-family="Helvetica" font-size="12" fill="#534ab7">Periamygdaloid</text>
    <path id="path20" fill="none" stroke="#5f5e5a" stroke-width="1.5" stroke-dasharray="4 4" stroke-dashoffset="0" d="M 35 328 L 35 500 L 52 500"/>
    <path id="path21" fill="#5f5e5a" stroke="none" d="M 60 500 L 50 495 L 50 505 Z"/>
    <text id="anterior-commissure-to-other" xml:space="preserve" x="44.626953" y="379" font-family="Helvetica" font-size="12" fill="#5f5e5a">anterior commissure to other bulb</text>
    <path id="path22" fill="none" stroke="#5f5e5a" stroke-width="1.5" d="M 414 356 L 414 392"/>
    <path id="path23" fill="#5f5e5a" stroke="none" d="M 414 400 L 409 390 L 419 390 Z"/>
    <path id="path24" fill="none" stroke="#5f5e5a" stroke-width="1.5" d="M 600 356 L 600 512 L 554 512"/>
    <path id="path25" fill="#5f5e5a" stroke="none" d="M 546 512 L 556 507 L 556 517 Z"/>
    <path id="path26" fill="#faece7" stroke="#993c1d" stroke-width="0.5" d="M 308 400 L 522 400 C 526.418274 400 530 403.581726 530 408 L 530 448 C 530 452.418274 526.418274 456 522 456 L 308 456 C 303.581726 456 300 452.418274 300 448 L 300 408 C 300 403.581726 303.581726 400 308 400 Z"/>
    <text id="Mediodorsal-thalamus" xml:space="preserve" x="339.09668" y="422" font-family="Helvetica" font-size="14" font-weight="700" fill="#712b13">Mediodorsal thalamus</text>
    <text id="After-cortex-not-before" xml:space="preserve" x="352.46875" y="440" font-family="Helvetica" font-size="12" fill="#993c1d">After cortex, not before</text>
    <path id="path27" fill="none" stroke="#5f5e5a" stroke-width="1.5" d="M 348 343 L 240 343 L 240 485 L 340 485 L 340 507"/>
    <path id="path28" fill="#5f5e5a" stroke="none" d="M 340 500 L 335 490 L 345 490 Z"/>
    <path id="path29" fill="none" stroke="#5f5e5a" stroke-width="1.5" d="M 415 456 L 415 492"/>
    <path id="path30" fill="#5f5e5a" stroke="none" d="M 415 500 L 410 490 L 420 490 Z"/>
    <path id="path31" fill="#faece7" stroke="#993c1d" stroke-width="0.5" d="M 298 500 L 532 500 C 536.418274 500 540 503.581726 540 508 L 540 548 C 540 552.418274 536.418274 556 532 556 L 298 556 C 293.581726 556 290 552.418274 290 548 L 290 508 C 290 503.581726 293.581726 500 298 500 Z"/>
    <text id="Orbitofrontal-cortex" xml:space="preserve" x="347.272461" y="522" font-family="Helvetica" font-size="14" font-weight="700" fill="#712b13">Orbitofrontal cortex</text>
    <text id="Value-identification-flavor" xml:space="preserve" x="343.402344" y="540" font-family="Helvetica" font-size="12" fill="#993c1d">Value, identification, flavor</text>
    <path id="path32" fill="#eeedfe" stroke="#534ab7" stroke-width="0.5" d="M 68 472 L 202 472 C 206.418274 472 210 475.581726 210 480 L 210 520 C 210 524.418274 206.418274 528 202 528 L 68 528 C 63.581722 528 60 524.418274 60 520 L 60 480 C 60 475.581726 63.581722 472 68 472 Z"/>
    <text id="Entorhinal-hippo" xml:space="preserve" x="74.006836" y="494" font-family="Helvetica" font-size="14" font-weight="700" fill="#3c3489">Entorhinal, hippo.</text>
    <text id="Rodent-direct-route" xml:space="preserve" x="82.470703" y="512" font-family="Helvetica" font-size="12" fill="#534ab7">Rodent direct route</text>
    <path id="path33" fill="none" stroke="#5f5e5a" stroke-width="1.5" stroke-dasharray="4 4" stroke-dashoffset="0" d="M 230 500 L 280 500"/>
    <path id="path34" fill="none" stroke="#5f5e5a" stroke-width="1.5" stroke-dasharray="5 4" stroke-dashoffset="0" d="M 540 528 L 660 528 L 660 158 L 466 158"/>
    <path id="path35" fill="#5f5e5a" stroke="none" d="M 458 158 L 468 153 L 468 163 Z"/>
    <text id="Dashed--feedback-to" xml:space="preserve" x="436.098633" y="602" font-family="Helvetica" font-size="12" fill="#5f5e5a">Dashed = feedback to bulb, commissural, and</text>
    <text id="routes-best-established-in" xml:space="preserve" x="432.266602" y="620" font-family="Helvetica" font-size="12" fill="#5f5e5a">routes best established in nonhuman mammals</text>
    <text id="Teal--periphery-and" xml:space="preserve" x="110.453125" y="602" font-family="Helvetica" font-size="12" fill="#5f5e5a">Teal = periphery and bulb</text>
    <text id="Coral--piriform-thalamus" xml:space="preserve" x="81.307617" y="620" font-family="Helvetica" font-size="12" fill="#5f5e5a">Coral = piriform, thalamus, OFC axis</text>
</svg>
