<?xml version="1.0" encoding="UTF-8"?>
<!-- Generated by Pixelmator Pro 3.8 -->
<svg width="1200" height="860" viewBox="0 0 1200 860" xmlns="http://www.w3.org/2000/svg">
    <path id="Path" fill="#ffffff" stroke="none" d="M 0 0 L 1200 0 L 1200 860 L 0 860 Z"/>
    <g id="Group">
        <text id="RECEPTOR-ORGAN" xml:space="preserve" x="33" y="32" font-family="Helvetica" font-size="12" font-weight="700" fill="#5b6470" letter-spacing="1.3">RECEPTOR ORGAN</text>
        <text id="FIRST-ORDER-NEURON" xml:space="preserve" x="251" y="32" font-family="Helvetica" font-size="12" font-weight="700" fill="#5b6470" letter-spacing="1.3">FIRST-ORDER NEURON</text>
        <text id="FIRST-CENTRAL-PROCESSOR" xml:space="preserve" x="529" y="32" font-family="Helvetica" font-size="12" font-weight="700" fill="#5b6470" letter-spacing="1.3">FIRST CENTRAL PROCESSOR</text>
        <text id="THALAMUS" xml:space="preserve" x="811" y="32" font-family="Helvetica" font-size="12" font-weight="700" fill="#5b6470" letter-spacing="1.3">THALAMUS</text>
        <text id="CORTEX" xml:space="preserve" x="1001" y="32" font-family="Helvetica" font-size="12" font-weight="700" fill="#5b6470" letter-spacing="1.3">CORTEX</text>
    </g>
    <path id="path1" fill="#000000" stroke="#d8dde3" d="M 34 40 L 1166 40"/>
    <path id="path2" fill="#fdf3f4" stroke="#d8a9b0" stroke-width="1.6" d="M 46 196 L 202 196 C 208.627411 196 214 201.372559 214 208 L 214 506 C 214 512.627441 208.627411 518 202 518 L 46 518 C 39.372581 518 34 512.627441 34 506 L 34 208 C 34 201.372559 39.372581 196 46 196 Z"/>
    <text id="Oral-cavity" xml:space="preserve" x="82.364502" y="226" font-family="Helvetica" font-size="15.5" font-weight="700" fill="#8c3b48">Oral cavity</text>
    <text id="taste-buds-in-papillae" xml:space="preserve" x="69.296631" y="245" font-family="Helvetica" font-size="11" fill="#8c3b48">taste buds in papillae,</text>
    <text id="palate-oropharynx" xml:space="preserve" x="76.442383" y="259" font-family="Helvetica" font-size="11" fill="#8c3b48">palate, oropharynx</text>
    <g id="g1">
        <path id="path3" fill="#000000" stroke="#b8707d" stroke-width="1.5" d="M 124 276 L 124 290"/>
        <text id="taste-pore" xml:space="preserve" x="101.375488" y="272" font-family="Helvetica" font-size="9.5" fill="#8c3b48">taste pore</text>
        <path id="path4" fill="#f6dfe2" stroke="#b8707d" stroke-width="1.5" d="M 91 356 L 101 302 C 116.333333 290 131.666667 290 147 302 L 157 356 Z"/>
        <path id="path5" fill="#e9b9c0" stroke="#b8707d" d="M 117.199997 330 C 117.199997 342.150269 114.424164 352 111 352 C 107.575836 352 104.800003 342.150269 104.800003 330 C 104.800003 317.849731 107.575836 308 111 308 C 114.424164 308 117.199997 317.849731 117.199997 330 Z"/>
        <path id="path6" fill="#dca3ac" stroke="#b8707d" d="M 130.199997 330 C 130.199997 342.150269 127.424164 352 124 352 C 120.575836 352 117.800003 342.150269 117.800003 330 C 117.800003 317.849731 120.575836 308 124 308 C 127.424164 308 130.199997 317.849731 130.199997 330 Z"/>
        <path id="path7" fill="#f2d0d5" stroke="#b8707d" d="M 143.199997 330 C 143.199997 342.150269 140.424164 352 137 352 C 133.575836 352 130.800003 342.150269 130.800003 330 C 130.800003 317.849731 133.575836 308 137 308 C 140.424164 308 143.199997 317.849731 143.199997 330 Z"/>
    </g>
    <text id="Type-II--Type" xml:space="preserve" x="69.311523" y="382" font-family="Helvetica" font-size="10" fill="#6b4048">Type II · Type III · Type I</text>
    <path id="path8" fill="#ffffff" stroke="#e0c3c8" d="M 56 398 L 192 398 C 196.418274 398 200 401.581726 200 406 L 200 492 C 200 496.418274 196.418274 500 192 500 L 56 500 C 51.581722 500 48 496.418274 48 492 L 48 406 C 48 401.581726 51.581722 398 56 398 Z"/>
    <text id="Receptor-cell--neuron" xml:space="preserve" x="65.439453" y="420" font-family="Helvetica" font-size="10.5" font-weight="700" fill="#8c3b48">Receptor cell ≠ neuron</text>
    <text id="sapid-chemical-" xml:space="preserve" x="83.32876" y="441" font-family="Helvetica" font-size="9.8" fill="#5c4a4d">sapid chemical →</text>
    <text id="taste-bud-cell-" xml:space="preserve" x="87.094629" y="457" font-family="Helvetica" font-size="9.8" fill="#5c4a4d">taste-bud cell →</text>
    <text id="transmitter-ATP-" xml:space="preserve" x="79.302002" y="473" font-family="Helvetica" font-size="9.8" fill="#5c4a4d">transmitter (ATP) →</text>
    <text id="cranial-afferent" xml:space="preserve" x="90.173877" y="488" font-family="Helvetica" font-size="9.8" fill="#5c4a4d">cranial afferent</text>
    <path id="path9" fill="none" stroke="#2f3a45" stroke-width="2.2" d="M 214 268 C 244 268 248 236 280 236"/>
    <text id="VII" xml:space="preserve" x="237.469727" y="230" font-family="Helvetica" font-size="11.5" font-weight="700" fill="#2f3a45">VII</text>
    <text id="anterior-tongue" xml:space="preserve" x="213.777539" y="279" font-family="Helvetica" font-size="9.2" fill="#5b6470">anterior tongue,</text>
    <text id="palate" xml:space="preserve" x="227.466797" y="289" font-family="Helvetica" font-size="9.2" fill="#5b6470">palate</text>
    <path id="path10" fill="#eef2f7" stroke="#7b8896" stroke-width="1.6" d="M 290 212 L 434 212 C 439.522858 212 444 216.477173 444 222 L 444 250 C 444 255.522827 439.522858 260 434 260 L 290 260 C 284.477142 260 280 255.522827 280 250 L 280 222 C 280 216.477173 284.477142 212 290 212 Z"/>
    <text id="Geniculate-ganglion" xml:space="preserve" x="300.270996" y="234" font-family="Helvetica" font-size="12.5" font-weight="700" fill="#2f3a45">Geniculate ganglion</text>
    <text id="facial-VII-somata" xml:space="preserve" x="321.015283" y="251" font-family="Helvetica" font-size="9.8" fill="#5b6470">facial (VII) somata</text>
    <path id="path11" fill="none" stroke="#2f3a45" stroke-width="2.2" d="M 214 340 C 246 340 250 340 280 340"/>
    <text id="IX" xml:space="preserve" x="239.067261" y="334" font-family="Helvetica" font-size="11.5" font-weight="700" fill="#2f3a45">IX</text>
    <text id="posterior--tongue" xml:space="preserve"><tspan x="228.103125" y="356.5" font-family="Helvetica" font-size="9.2" fill="#5b6470" xml:space="preserve">posterior</tspan><tspan x="231.930469" y="367.5" font-family="Helvetica" font-size="9.2" fill="#5b6470" xml:space="preserve">tongue</tspan></text>
    <path id="path12" fill="#eef2f7" stroke="#7b8896" stroke-width="1.6" d="M 290 316 L 434 316 C 439.522858 316 444 320.477173 444 326 L 444 354 C 444 359.522858 439.522858 364 434 364 L 290 364 C 284.477142 364 280 359.522858 280 354 L 280 326 C 280 320.477173 284.477142 316 290 316 Z"/>
    <text id="Petrosal-ganglion" xml:space="preserve" x="308.061646" y="338" font-family="Helvetica" font-size="12.5" font-weight="700" fill="#2f3a45">Petrosal ganglion</text>
    <text id="glossopharyngeal-IX-somata" xml:space="preserve" x="295.405127" y="355" font-family="Helvetica" font-size="9.8" fill="#5b6470">glossopharyngeal (IX) somata</text>
    <path id="path13" fill="none" stroke="#2f3a45" stroke-width="2.2" d="M 214 412 C 246 412 248 444 280 444"/>
    <text id="X" xml:space="preserve" x="240.164795" y="408" font-family="Helvetica" font-size="11.5" font-weight="700" fill="#2f3a45">X</text>
    <text id="epiglottis" xml:space="preserve" x="218.566797" y="451" font-family="Helvetica" font-size="9.2" fill="#5b6470">epiglottis,</text>
    <text id="upper-pharynx" xml:space="preserve" x="216.591895" y="464" font-family="Helvetica" font-size="9.2" fill="#5b6470">upper pharynx</text>
    <path id="path14" fill="#eef2f7" stroke="#7b8896" stroke-width="1.6" d="M 290 420 L 434 420 C 439.522858 420 444 424.477142 444 430 L 444 458 C 444 463.522858 439.522858 468 434 468 L 290 468 C 284.477142 468 280 463.522858 280 458 L 280 430 C 280 424.477142 284.477142 420 290 420 Z"/>
    <text id="Nodose-ganglion" xml:space="preserve" x="309.307251" y="442" font-family="Helvetica" font-size="12.5" font-weight="700" fill="#2f3a45">Nodose ganglion</text>
    <text id="vagal-X-somata" xml:space="preserve" x="323.462891" y="459" font-family="Helvetica" font-size="9.8" fill="#5b6470">vagal (X) somata</text>
    <text id="Territories-overlap-at-their" xml:space="preserve" x="280.480273" y="502" font-family="Helvetica" font-size="9.8" font-style="italic" fill="#78828f">Territories overlap at their borders —</text>
    <text id="not-perfectly-partitioned-thirds" xml:space="preserve" x="296.220996" y="515" font-family="Helvetica" font-size="9.8" font-style="italic" fill="#78828f">not perfectly partitioned thirds</text>
    <text id="central-processes" xml:space="preserve" x="447.274658" y="202" font-family="Helvetica" font-size="9.5" fill="#5b6470">central processes</text>
    <path id="path15" fill="none" stroke="#2f3a45" stroke-width="2.2" d="M 444 236 C 480 236 492 258 522 258"/>
    <path id="path16" fill="none" stroke="#2f3a45" stroke-width="2.2" d="M 444 340 C 480 340 492 290 522 290"/>
    <path id="path17" fill="none" stroke="#2f3a45" stroke-width="2.2" d="M 444 444 C 480 444 492 322 522 322"/>
    <path id="path18" fill="#eef6f1" stroke="#4b9070" stroke-width="1.8" d="M 534 196 L 722 196 C 728.627441 196 734 201.372559 734 208 L 734 456 C 734 462.627411 728.627441 468 722 468 L 534 468 C 527.372559 468 522 462.627411 522 456 L 522 208 C 522 201.372559 527.372559 196 534 196 Z"/>
    <text id="Rostral-NTS" xml:space="preserve" x="583.076416" y="225" font-family="Helvetica" font-size="15" font-weight="700" fill="#245f45">Rostral NTS</text>
    <text id="nucleus-of-the-solitary" xml:space="preserve" x="565.337891" y="242" font-family="Helvetica" font-size="10.2" fill="#245f45">nucleus of the solitary tract</text>
    <g id="g2">
        <path id="path19" fill="#ffffff" stroke="#4b9070" stroke-width="1.3" d="M 552 256 L 562 256 C 566.418274 256 570 259.581726 570 264 L 570 416 C 570 420.418274 566.418274 424 562 424 L 552 424 C 547.581726 424 544 420.418274 544 416 L 544 264 C 544 259.581726 547.581726 256 552 256 Z"/>
        <path id="path20" fill="#bfe0cd" stroke="#4b9070" stroke-width="1.3" d="M 552 256 L 562 256 C 566.418274 256 570 259.581726 570 264 L 570 318 C 570 322.418274 566.418274 326 562 326 L 552 326 C 547.581726 326 544 322.418274 544 318 L 544 264 C 544 259.581726 547.581726 256 552 256 Z"/>
        <text id="rostral" xml:space="preserve" x="543.275391" y="253" font-family="Helvetica" font-size="8.8" fill="#245f45">rostral</text>
        <text id="caudal" xml:space="preserve" x="542.03418" y="440" font-family="Helvetica" font-size="8.8" fill="#6b6f76">caudal</text>
    </g>
    <text id="gustatory-input" xml:space="preserve" x="581" y="284" font-family="Helvetica" font-size="10" font-weight="700" fill="#245f45">gustatory input</text>
    <text id="concentrated-rostrally" xml:space="preserve" x="581" y="298" font-family="Helvetica" font-size="9.5" fill="#245f45">concentrated rostrally</text>
    <text id="caudal-NTS-thoracic-and" xml:space="preserve" x="581" y="368" font-family="Helvetica" font-size="9.5" fill="#6b6f76">caudal NTS: thoracic and</text>
    <text id="abdominal-visceral-afferents" xml:space="preserve" x="581" y="382" font-family="Helvetica" font-size="9.5" fill="#6b6f76">abdominal visceral afferents</text>
    <text id="Already-processing-multi-quality-tuning" xml:space="preserve" x="539.391064" y="446" font-family="Helvetica" font-size="9.8" font-style="italic" fill="#3c7a5c">Already processing: multi-quality tuning,</text>
    <text id="lick-locked-and-bout-predictive-firing" xml:space="preserve" x="548.107227" y="459" font-family="Helvetica" font-size="9.8" font-style="italic" fill="#3c7a5c">lick-locked and bout-predictive firing</text>
    <path id="path21" fill="#ffffff" stroke="#a9cbb8" stroke-width="1.2" d="M 530 484 L 726 484 C 730.418274 484 734 487.581726 734 492 L 734 526 C 734 530.418274 730.418274 534 726 534 L 530 534 C 525.581726 534 522 530.418274 522 526 L 522 492 C 522 487.581726 525.581726 484 530 484 Z"/>
    <text id="Parallel-outputs" xml:space="preserve" x="588.492676" y="505" font-family="Helvetica" font-size="10" font-weight="700" fill="#245f45">Parallel outputs</text>
    <text id="ascending-and-descending-arise" xml:space="preserve" x="548.709644" y="515" font-family="Helvetica" font-size="9.3" fill="#3c7a5c">ascending and descending arise from</text>
    <text id="substantially-separate-NTS-populations" xml:space="preserve" x="545.353833" y="530" font-family="Helvetica" font-size="9.3" fill="#3c7a5c">substantially separate NTS populations</text>
    <path id="path22" fill="none" stroke="#2e7d5b" stroke-width="2" d="M 628 534 C 628 568 628 568 628 596"/>
    <path id="path23" fill="#f2f8f4" stroke="#2e7d5b" stroke-width="1.5" d="M 480 596 L 776 596 C 781.522827 596 786 600.477173 786 606 L 786 652 C 786 657.522827 781.522827 662 776 662 L 480 662 C 474.477142 662 470 657.522827 470 652 L 470 606 C 470 600.477173 474.477142 596 480 596 Z"/>
    <text id="Local-brainstem-circuits" xml:space="preserve" x="554.100586" y="619" font-family="Helvetica" font-size="12.5" font-weight="700" fill="#245f45">Local brainstem circuits</text>
    <text id="salivation--licking-" xml:space="preserve" x="533.473096" y="637" font-family="Helvetica" font-size="10.3" fill="#3c7a5c">salivation · licking · swallowing · rejection</text>
    <text id="acceptance-and-rejection-before" xml:space="preserve" x="517.103125" y="653" font-family="Helvetica" font-size="9.6" font-style="italic" fill="#3c7a5c">acceptance and rejection before cortical processing</text>
    <text id="PRIMATE" xml:space="preserve" x="764.155518" y="240" font-family="Helvetica" font-size="11" font-weight="700" fill="#1d5b8f">PRIMATE</text>
    <path id="path24" fill="none" stroke="#1d5b8f" stroke-width="3" d="M 734 262 C 776 262 800 262 842 262"/>
    <text id="substantial--direct-projection" xml:space="preserve"><tspan x="765.769458" y="282" font-family="Helvetica" font-size="9.3" fill="#1d5b8f" xml:space="preserve">substantial</tspan><tspan x="753.88335" y="293" font-family="Helvetica" font-size="9.3" fill="#1d5b8f" xml:space="preserve">direct projection,</tspan></text>
    <text id="no-obligatory--pontine" xml:space="preserve"><tspan x="760.873755" y="315" font-family="Helvetica" font-size="9.3" fill="#1d5b8f" xml:space="preserve">no obligatory</tspan><tspan x="760.873755" y="326" font-family="Helvetica" font-size="9.3" fill="#1d5b8f" xml:space="preserve">pontine relay</tspan></text>
    <path id="path25" fill="none" stroke="#8a6a17" stroke-width="2.6" stroke-dasharray="7 4" stroke-dashoffset="0" d="M 734 398 C 766 398 772 422 800 422"/>
    <text id="RODENT" xml:space="preserve" x="743.278076" y="375" font-family="Helvetica" font-size="11" font-weight="700" fill="#8a6a17">RODENT</text>
    <path id="path26" fill="#fdf6e3" stroke="#c9a227" stroke-width="1.6" d="M 810 394 L 946 394 C 951.522827 394 956 398.477142 956 404 L 956 440 C 956 445.522858 951.522827 450 946 450 L 810 450 C 804.477173 450 800 445.522858 800 440 L 800 404 C 800 398.477142 804.477173 394 810 394 Z"/>
    <text id="Parabrachial-n" xml:space="preserve" x="833.480469" y="416" font-family="Helvetica" font-size="12" font-weight="700" fill="#7a5c10">Parabrachial n.</text>
    <text id="obligatory-pontine" xml:space="preserve" x="839.395703" y="432" font-family="Helvetica" font-size="9.4" fill="#7a5c10">obligatory pontine</text>
    <text id="gustatory-relay" xml:space="preserve" x="845.174609" y="444" font-family="Helvetica" font-size="9.4" fill="#7a5c10">gustatory relay</text>
    <path id="path27" fill="none" stroke="#8a6a17" stroke-width="2.6" stroke-dasharray="7 4" stroke-dashoffset="0" d="M 878 394 C 878 368 878 356 878 340"/>
    <path id="path28" fill="none" stroke="#8a6a17" stroke-width="1.8" stroke-dasharray="5 4" stroke-dashoffset="0" d="M 878 450 C 878 486 862 494 832 494"/>
    <text id="hypothalamic-and" xml:space="preserve" x="889" y="484" font-family="Helvetica" font-size="9.4" fill="#7a5c10">hypothalamic and</text>
    <text id="amygdalar-circuits" xml:space="preserve" x="889" y="496" font-family="Helvetica" font-size="9.4" fill="#7a5c10">amygdalar circuits</text>
    <path id="path29" fill="#e9f0f8" stroke="#1d5b8f" stroke-width="1.8" d="M 854 212 L 986 212 C 992.627441 212 998 217.372559 998 224 L 998 328 C 998 334.627441 992.627441 340 986 340 L 854 340 C 847.372559 340 842 334.627441 842 328 L 842 224 C 842 217.372559 847.372559 212 854 212 Z"/>
    <text id="VPMpc" xml:space="preserve" x="891.328125" y="242" font-family="Helvetica" font-size="16" font-weight="700" fill="#124470">VPMpc</text>
    <text id="parvocellular-gustatory" xml:space="preserve" x="870.209375" y="262" font-family="Helvetica" font-size="9.6" fill="#124470">parvocellular gustatory</text>
    <text id="ventral-posterior-medial" xml:space="preserve" x="868.110938" y="275" font-family="Helvetica" font-size="9.6" fill="#124470">ventral posterior medial</text>
    <text id="thalamus" xml:space="preserve" x="899.023438" y="288" font-family="Helvetica" font-size="9.6" fill="#124470">thalamus</text>
    <text id="neither-a-passive-way" xml:space="preserve" x="852.934473" y="307" font-family="Helvetica" font-size="9.2" font-style="italic" fill="#4a6d8c">neither a passive way station</text>
    <text id="nor-a-place-taste" xml:space="preserve" x="848.186914" y="322" font-family="Helvetica" font-size="9.2" font-style="italic" fill="#4a6d8c">nor a place taste waits unchanged</text>
    <path id="path30" fill="none" stroke="#1d5b8f" stroke-width="3" d="M 998 244 C 1024 244 1030 208 1058 208"/>
    <path id="path31" fill="#f0ecf7" stroke="#6a4b9c" stroke-width="1.8" d="M 1012 106 L 1146 106 C 1152.627441 106 1158 111.372559 1158 118 L 1158 196 C 1158 202.627441 1152.627441 208 1146 208 L 1012 208 C 1005.372559 208 1000 202.627441 1000 196 L 1000 118 C 1000 111.372559 1005.372559 106 1012 106 Z"/>
    <text id="Insularopercular" xml:space="preserve" x="1020.353394" y="134" font-family="Helvetica" font-size="13.5" font-weight="700" fill="#4a3273">Insular–opercular</text>
    <text id="cortex" xml:space="preserve" x="1057.240112" y="151" font-family="Helvetica" font-size="13.5" font-weight="700" fill="#4a3273">cortex</text>
    <text id="dorsal-mid-insula-" xml:space="preserve" x="1037.082031" y="170" font-family="Helvetica" font-size="9.6" fill="#4a3273">dorsal mid-insula +</text>
    <text id="frontal--parietal-operculum" xml:space="preserve" x="1020.171094" y="183" font-family="Helvetica" font-size="9.6" fill="#4a3273">frontal / parietal operculum</text>
    <text id="no-fixed-gustotopic-map" xml:space="preserve" x="1029.470947" y="200" font-family="Helvetica" font-size="9" font-style="italic" fill="#6a4b9c">no fixed gustotopic map</text>
    <path id="path32" fill="none" stroke="#6a4b9c" stroke-width="2" stroke-dasharray="5 4" stroke-dashoffset="0" d="M 1044 208 C 1016 232 1010 244 998 272"/>
    <text id="recurrent" xml:space="preserve" x="1007.193115" y="301" font-family="Helvetica" font-size="9.4" font-style="italic" fill="#6a4b9c">recurrent</text>
    <text id="corticothalamic-loop" xml:space="preserve" x="1003.464209" y="315" font-family="Helvetica" font-size="9.4" font-style="italic" fill="#6a4b9c">corticothalamic loop</text>
    <path id="path33" fill="#faf7fd" stroke="#a08cc4" stroke-width="1.3" d="M 1010 360 L 1148 360 C 1153.522827 360 1158 364.477142 1158 370 L 1158 448 C 1158 453.522858 1153.522827 458 1148 458 L 1010 458 C 1004.477173 458 1000 453.522858 1000 448 L 1000 370 C 1000 364.477142 1004.477173 360 1010 360 Z"/>
    <text id="Wider-network" xml:space="preserve" x="1041.375488" y="383" font-family="Helvetica" font-size="10.5" font-weight="700" fill="#4a3273">Wider network</text>
    <text id="anterior--ventral-insula" xml:space="preserve" x="1014.200024" y="401" font-family="Helvetica" font-size="9.3" fill="#5b4785">anterior / ventral insula (flavor)</text>
    <text id="orbitofrontal--amygdala" xml:space="preserve" x="1028.406592" y="415" font-family="Helvetica" font-size="9.3" fill="#5b4785">orbitofrontal · amygdala</text>
    <text id="striatum--hypothalamus" xml:space="preserve" x="1028.13689" y="429" font-family="Helvetica" font-size="9.3" fill="#5b4785">striatum · hypothalamus</text>
    <text id="somatosensory-cortex" xml:space="preserve" x="1032.014917" y="443" font-family="Helvetica" font-size="9.3" fill="#5b4785">somatosensory cortex</text>
    <path id="path34" fill="none" stroke="#6a4b9c" stroke-width="1.8" d="M 1120 208 C 1120 280 1120 318 1120 358"/>
    <path id="path35" fill="none" stroke="#6b6f76" stroke-width="1.8" stroke-dasharray="6 5" stroke-dashoffset="0" d="M 1000 158 C 920 118 720 110 590 132 C 548 140 526 152 522 182"/>
    <text id="Descending-forebrain-modulation-of" xml:space="preserve" x="600.335596" y="108" font-family="Helvetica" font-size="10.2" font-style="italic" fill="#5b6470">Descending forebrain modulation of taste-responsive brainstem activity</text>
    <path id="path36" fill="#fafbfc" stroke="#dde2e8" d="M 44 700 L 1156 700 C 1161.522827 700 1166 704.477173 1166 710 L 1166 820 C 1166 825.522827 1161.522827 830 1156 830 L 44 830 C 38.477154 830 34 825.522827 34 820 L 34 710 C 34 704.477173 38.477154 700 44 700 Z"/>
    <text id="Legend" xml:space="preserve" x="53" y="726" font-family="Helvetica" font-size="11.5" font-weight="700" fill="#2f3a45">Legend</text>
    <path id="path37" fill="#000000" stroke="#2f3a45" stroke-width="2.4" d="M 54 748 L 94 748"/>
    <text id="First-order-cranial-afferent-VII" xml:space="preserve" x="103" y="754" font-family="Helvetica" font-size="10.4" fill="#2f3a45">First-order cranial afferent (VII, IX, X)</text>
    <path id="path38" fill="#000000" stroke="#1d5b8f" stroke-width="3" d="M 400 748 L 440 748"/>
    <text id="Primate-ascending-route-NTS" xml:space="preserve" x="449" y="756" font-family="Helvetica" font-size="10.4" fill="#1d5b8f">Primate ascending route: NTS → VPMpc → insular–opercular cortex</text>
    <path id="path39" fill="#000000" stroke="#8a6a17" stroke-width="2.6" stroke-dasharray="7 4" stroke-dashoffset="0" d="M 54 776 L 94 776"/>
    <text id="Rodent-route-via-obligatory" xml:space="preserve" x="103" y="782" font-family="Helvetica" font-size="10.4" fill="#8a6a17">Rodent route via obligatory parabrachial relay</text>
    <path id="path40" fill="#000000" stroke="#2e7d5b" stroke-width="2" d="M 400 776 L 440 776"/>
    <text id="Parallel-NTS-output-to" xml:space="preserve" x="449" y="782" font-family="Helvetica" font-size="10.4" fill="#245f45">Parallel NTS output to consummatory brainstem circuits</text>
    <path id="path41" fill="#000000" stroke="#6b6f76" stroke-width="1.8" stroke-dasharray="6 5" stroke-dashoffset="0" d="M 820 776 L 860 776"/>
    <text id="Descending--recurrent-modulation" xml:space="preserve" x="869" y="782" font-family="Helvetica" font-size="10.4" fill="#5b6470">Descending / recurrent modulation</text>
    <path id="path42" fill="#000000" stroke="none" d="M 54 738 L 54 738"/>
    <text id="The-receptor--brainstem" xml:space="preserve" x="53" y="810" font-family="Helvetica" font-size="10.2" font-style="italic" fill="#78828f">The receptor → brainstem → thalamus → cortex sequence is the main ascending road, not the entire network. Rodent and primate routes are drawn together for comparison; they are not two parallel pathways within one brain.</text>
</svg>
