<svg xmlns="http://www.w3.org/2000/svg" width="1400" height="800" viewBox="0 0 1400 800">
  <rect width="1400" height="800" fill="#ffffff"/>
  <rect x="40" y="40" width="1320" height="720" rx="20" fill="#f7f7f7" stroke="#333333" stroke-width="2"/>
  <text x="700" y="95" text-anchor="middle" font-family="Arial, Helvetica, sans-serif" font-size="38" font-weight="700" fill="#111111">Major route map</text>
  <text x="700" y="150" text-anchor="middle" font-family="Arial, Helvetica, sans-serif" font-size="24" fill="#333333">Placeholder SVG for Quarto rendering</text>
  <defs><marker id="arrow" markerWidth="10" markerHeight="10" refX="8" refY="3" orient="auto" markerUnits="strokeWidth"><path d="M0,0 L0,6 L9,3 z" fill="#555555" /></marker></defs><rect x="40" y="590" width="160" height="60" rx="14" fill="#ffffff" stroke="#333333" stroke-width="2"/><text x="120.0" y="628.0" text-anchor="middle" font-family="Arial, Helvetica, sans-serif" font-size="22" font-weight="600" fill="#111111">Body</text><rect x="250" y="590" width="160" height="60" rx="14" fill="#ffffff" stroke="#333333" stroke-width="2"/><text x="330.0" y="628.0" text-anchor="middle" font-family="Arial, Helvetica, sans-serif" font-size="22" font-weight="600" fill="#111111">Spinal cord</text><rect x="460" y="490" width="160" height="60" rx="14" fill="#ffffff" stroke="#333333" stroke-width="2"/><text x="540.0" y="528.0" text-anchor="middle" font-family="Arial, Helvetica, sans-serif" font-size="22" font-weight="600" fill="#111111">Brainstem</text><rect x="680" y="330" width="160" height="60" rx="14" fill="#ffffff" stroke="#333333" stroke-width="2"/><text x="760.0" y="368.0" text-anchor="middle" font-family="Arial, Helvetica, sans-serif" font-size="22" font-weight="600" fill="#111111">Thalamus</text><rect x="920" y="220" width="160" height="60" rx="14" fill="#ffffff" stroke="#333333" stroke-width="2"/><text x="1000.0" y="258.0" text-anchor="middle" font-family="Arial, Helvetica, sans-serif" font-size="22" font-weight="600" fill="#111111">Cortex</text><rect x="710" y="580" width="160" height="60" rx="14" fill="#ffffff" stroke="#333333" stroke-width="2"/><text x="790.0" y="618.0" text-anchor="middle" font-family="Arial, Helvetica, sans-serif" font-size="22" font-weight="600" fill="#111111">Cerebellum</text><rect x="1100" y="220" width="160" height="60" rx="14" fill="#ffffff" stroke="#333333" stroke-width="2"/><text x="1180.0" y="258.0" text-anchor="middle" font-family="Arial, Helvetica, sans-serif" font-size="22" font-weight="600" fill="#111111">Hemisphere R</text><rect x="680" y="430" width="160" height="60" rx="14" fill="#ffffff" stroke="#333333" stroke-width="2"/><text x="760.0" y="468.0" text-anchor="middle" font-family="Arial, Helvetica, sans-serif" font-size="22" font-weight="600" fill="#111111">Hypothalamus</text><line x1="200" y1="620" x2="250" y2="620" stroke="#555555" stroke-width="3" marker-end="url(#arrow)"/><line x1="410" y1="620" x2="460" y2="535" stroke="#555555" stroke-width="3" marker-end="url(#arrow)"/><line x1="620" y1="500" x2="690" y2="380" stroke="#555555" stroke-width="3" marker-end="url(#arrow)"/><line x1="840" y1="350" x2="920" y2="275" stroke="#555555" stroke-width="3" marker-end="url(#arrow)"/><line x1="920" y1="255" x2="840" y2="340" stroke="#555555" stroke-width="3" marker-end="url(#arrow)"/><line x1="410" y1="620" x2="710" y2="610" stroke="#555555" stroke-width="3" marker-end="url(#arrow)"/><line x1="710" y1="590" x2="620" y2="520" stroke="#555555" stroke-width="3" marker-end="url(#arrow)"/><line x1="840" y1="590" x2="940" y2="280" stroke="#555555" stroke-width="3" marker-end="url(#arrow)"/><line x1="1080" y1="250" x2="1100" y2="250" stroke="#555555" stroke-width="3" marker-end="url(#arrow)"/><line x1="1100" y1="250" x2="1080" y2="250" stroke="#555555" stroke-width="3" marker-end="url(#arrow)"/><line x1="840" y1="460" x2="920" y2="280" stroke="#555555" stroke-width="3" marker-end="url(#arrow)"/><line x1="920" y1="280" x2="840" y2="460" stroke="#555555" stroke-width="3" marker-end="url(#arrow)"/><text x="300" y="705" text-anchor="middle" font-family="Arial, Helvetica, sans-serif" font-size="20" font-weight="400" fill="#111111">ascending / descending spinal routes</text><text x="690" y="705" text-anchor="middle" font-family="Arial, Helvetica, sans-serif" font-size="20" font-weight="400" fill="#111111">cerebellar peduncles</text><text x="990" y="180" text-anchor="middle" font-family="Arial, Helvetica, sans-serif" font-size="20" font-weight="400" fill="#111111">association, thalamo-cortical, commissural routes</text>
</svg>
