<svg xmlns="http://www.w3.org/2000/svg" width="1400" height="800" viewBox="0 0 1400 800">
  <rect width="1400" height="800" fill="#ffffff"/>
  <rect x="40" y="40" width="1320" height="720" rx="20" fill="#f7f7f7" stroke="#333333" stroke-width="2"/>
  <text x="700" y="95" text-anchor="middle" font-family="Arial, Helvetica, sans-serif" font-size="38" font-weight="700" fill="#111111">Vesicle-to-structure map</text>
  <text x="700" y="150" text-anchor="middle" font-family="Arial, Helvetica, sans-serif" font-size="24" fill="#333333">Placeholder SVG for Quarto rendering</text>
  <defs><marker id="arrow" markerWidth="10" markerHeight="10" refX="8" refY="3" orient="auto" markerUnits="strokeWidth"><path d="M0,0 L0,6 L9,3 z" fill="#555555" /></marker></defs><rect x="90" y="220" width="260" height="60" rx="14" fill="#d9e8ff" stroke="#333333" stroke-width="2"/><text x="220.0" y="258.0" text-anchor="middle" font-family="Arial, Helvetica, sans-serif" font-size="22" font-weight="600" fill="#111111">Telencephalon</text><line x1="350" y1="250" x2="470" y2="250" stroke="#555555" stroke-width="3" marker-end="url(#arrow)"/><rect x="470" y="220" width="175" height="60" rx="14" fill="#d9e8ff" stroke="#333333" stroke-width="2"/><text x="557.5" y="258.0" text-anchor="middle" font-family="Arial, Helvetica, sans-serif" font-size="22" font-weight="600" fill="#111111">Cortex</text><line x1="350" y1="250" x2="675" y2="250" stroke="#555555" stroke-width="3" marker-end="url(#arrow)"/><rect x="675" y="220" width="175" height="60" rx="14" fill="#d9e8ff" stroke="#333333" stroke-width="2"/><text x="762.5" y="258.0" text-anchor="middle" font-family="Arial, Helvetica, sans-serif" font-size="22" font-weight="600" fill="#111111">Striatum/pallidum</text><line x1="350" y1="250" x2="880" y2="250" stroke="#555555" stroke-width="3" marker-end="url(#arrow)"/><rect x="880" y="220" width="175" height="60" rx="14" fill="#d9e8ff" stroke="#333333" stroke-width="2"/><text x="967.5" y="258.0" text-anchor="middle" font-family="Arial, Helvetica, sans-serif" font-size="22" font-weight="600" fill="#111111">Hippocampal formation</text><line x1="350" y1="250" x2="1085" y2="250" stroke="#555555" stroke-width="3" marker-end="url(#arrow)"/><rect x="1085" y="220" width="175" height="60" rx="14" fill="#d9e8ff" stroke="#333333" stroke-width="2"/><text x="1172.5" y="258.0" text-anchor="middle" font-family="Arial, Helvetica, sans-serif" font-size="22" font-weight="600" fill="#111111">Amygdala</text><rect x="90" y="330" width="260" height="60" rx="14" fill="#d9fff8" stroke="#333333" stroke-width="2"/><text x="220.0" y="368.0" text-anchor="middle" font-family="Arial, Helvetica, sans-serif" font-size="22" font-weight="600" fill="#111111">Diencephalon</text><line x1="350" y1="360" x2="470" y2="360" stroke="#555555" stroke-width="3" marker-end="url(#arrow)"/><rect x="470" y="330" width="175" height="60" rx="14" fill="#d9fff8" stroke="#333333" stroke-width="2"/><text x="557.5" y="368.0" text-anchor="middle" font-family="Arial, Helvetica, sans-serif" font-size="22" font-weight="600" fill="#111111">Thalamus</text><line x1="350" y1="360" x2="675" y2="360" stroke="#555555" stroke-width="3" marker-end="url(#arrow)"/><rect x="675" y="330" width="175" height="60" rx="14" fill="#d9fff8" stroke="#333333" stroke-width="2"/><text x="762.5" y="368.0" text-anchor="middle" font-family="Arial, Helvetica, sans-serif" font-size="22" font-weight="600" fill="#111111">Hypothalamus</text><line x1="350" y1="360" x2="880" y2="360" stroke="#555555" stroke-width="3" marker-end="url(#arrow)"/><rect x="880" y="330" width="175" height="60" rx="14" fill="#d9fff8" stroke="#333333" stroke-width="2"/><text x="967.5" y="368.0" text-anchor="middle" font-family="Arial, Helvetica, sans-serif" font-size="22" font-weight="600" fill="#111111">Epithalamus</text><line x1="350" y1="360" x2="1085" y2="360" stroke="#555555" stroke-width="3" marker-end="url(#arrow)"/><rect x="1085" y="330" width="175" height="60" rx="14" fill="#d9fff8" stroke="#333333" stroke-width="2"/><text x="1172.5" y="368.0" text-anchor="middle" font-family="Arial, Helvetica, sans-serif" font-size="22" font-weight="600" fill="#111111">Subthalamus</text><rect x="90" y="440" width="260" height="60" rx="14" fill="#fff2cc" stroke="#333333" stroke-width="2"/><text x="220.0" y="478.0" text-anchor="middle" font-family="Arial, Helvetica, sans-serif" font-size="22" font-weight="600" fill="#111111">Mesencephalon</text><line x1="350" y1="470" x2="470" y2="470" stroke="#555555" stroke-width="3" marker-end="url(#arrow)"/><rect x="470" y="440" width="175" height="60" rx="14" fill="#fff2cc" stroke="#333333" stroke-width="2"/><text x="557.5" y="478.0" text-anchor="middle" font-family="Arial, Helvetica, sans-serif" font-size="22" font-weight="600" fill="#111111">Tectum</text><line x1="350" y1="470" x2="675" y2="470" stroke="#555555" stroke-width="3" marker-end="url(#arrow)"/><rect x="675" y="440" width="175" height="60" rx="14" fill="#fff2cc" stroke="#333333" stroke-width="2"/><text x="762.5" y="478.0" text-anchor="middle" font-family="Arial, Helvetica, sans-serif" font-size="22" font-weight="600" fill="#111111">Tegmentum</text><rect x="90" y="550" width="260" height="60" rx="14" fill="#e1f5d8" stroke="#333333" stroke-width="2"/><text x="220.0" y="588.0" text-anchor="middle" font-family="Arial, Helvetica, sans-serif" font-size="22" font-weight="600" fill="#111111">Metencephalon</text><line x1="350" y1="580" x2="470" y2="580" stroke="#555555" stroke-width="3" marker-end="url(#arrow)"/><rect x="470" y="550" width="175" height="60" rx="14" fill="#e1f5d8" stroke="#333333" stroke-width="2"/><text x="557.5" y="588.0" text-anchor="middle" font-family="Arial, Helvetica, sans-serif" font-size="22" font-weight="600" fill="#111111">Pons</text><line x1="350" y1="580" x2="675" y2="580" stroke="#555555" stroke-width="3" marker-end="url(#arrow)"/><rect x="675" y="550" width="175" height="60" rx="14" fill="#e1f5d8" stroke="#333333" stroke-width="2"/><text x="762.5" y="588.0" text-anchor="middle" font-family="Arial, Helvetica, sans-serif" font-size="22" font-weight="600" fill="#111111">Cerebellum</text><rect x="90" y="660" width="260" height="60" rx="14" fill="#ffe3c4" stroke="#333333" stroke-width="2"/><text x="220.0" y="698.0" text-anchor="middle" font-family="Arial, Helvetica, sans-serif" font-size="22" font-weight="600" fill="#111111">Myelencephalon</text><line x1="350" y1="690" x2="470" y2="690" stroke="#555555" stroke-width="3" marker-end="url(#arrow)"/><rect x="470" y="660" width="175" height="60" rx="14" fill="#ffe3c4" stroke="#333333" stroke-width="2"/><text x="557.5" y="698.0" text-anchor="middle" font-family="Arial, Helvetica, sans-serif" font-size="22" font-weight="600" fill="#111111">Medulla</text>
</svg>
